<svg xmlns="http://www.w3.org/2000/svg" xmlns:xlink="http://www.w3.org/1999/xlink" width="1056" height="816" viewBox="0 0 792 612"><clipPath id="a"><path transform="matrix(.75 0 0 .75 28.5 28.5)" d="M0 0h980v740H0V0z" fill-rule="evenodd"/></clipPath><g clip-path="url(#a)"><clipPath id="b"><path transform="matrix(.75 0 0 .75 28.5 28.5)" d="M-24 0H999v725H-24V0z" fill-rule="evenodd"/></clipPath><g clip-path="url(#b)"><clipPath id="c"><path transform="matrix(.75 0 0 .75 28.5 28.5)" d="M0 0h980v740H0V0z" fill-rule="evenodd"/></clipPath><g clip-path="url(#c)"><clipPath id="d"><path transform="matrix(.75 0 0 .75 28.5 28.5)" d="M-24-40H999v820H-24V-40z" fill-rule="evenodd"/></clipPath><g clip-path="url(#d)"><clipPath id="e"><path transform="matrix(.75 0 0 .75 28.5 28.5)" d="M-24-40H999v820H-24V-40z" fill-rule="evenodd"/></clipPath><g clip-path="url(#e)"><path stroke-width=".91925267" stroke-miterlimit="10" fill="none" stroke="#4b7693" d="M57.445 569.884H730.39V41.288H57.445v528.596z"/><path stroke-width=".91925267" stroke-miterlimit="10" fill="none" stroke="#4b7693" d="M55.584 568.127h676.565V43.15H55.584v524.977z"/><path stroke-width=".91925267" stroke-miterlimit="10" fill="none" stroke="#4b7693" d="M53.826 566.265H734.01V45.011H53.826v521.254z"/><path stroke-width=".91925267" stroke-miterlimit="10" fill="none" stroke="#4b7693" d="M51.965 564.404h683.907V46.769H51.965v517.635z"/><path stroke-width=".91925267" stroke-miterlimit="10" fill="none" stroke="#4b7693" d="M50.103 562.646H737.63V48.63H50.103v514.016z"/><path stroke-width=".91925267" stroke-miterlimit="10" fill="none" stroke="#4b7693" d="M48.345 560.785h691.146V50.49H48.345v510.294z"/><path stroke-width=".91925267" stroke-miterlimit="10" fill="none" stroke="#4b7693" d="M46.484 559.027h694.868V52.25H46.484v506.778z"/><path stroke-width=".91925267" stroke-miterlimit="10" fill="none" stroke="#4b7693" d="M44.623 557.166H743.11V54.11H44.623v503.056zM44.933 43.15h1.758v-1.862h-1.758v1.862zM44.933 569.884h1.758v-1.757h-1.758v1.757zM741.559 43.15h1.758v-1.862h-1.758v1.862zM741.559 569.884h1.758v-1.757h-1.758v1.757z"/><path d="m488.325 191.43-64.213 33.605v106.506c0 4.24 0 9.306-1.448 13.545-.724 4.24-2.171 8.583-3.619 12.202-.724.724-.724 2.171-1.448 2.895-2.171 0-17.888-4.963-25.023-10.03-2.895-2.171-5.687-4.24-8.582-7.135-2.896-2.895-4.964-5.687-7.135-8.582-2.172-2.895-4.24-6.411-5.687-10.03-1.448-3.62-2.896-7.135-3.62-11.478-.723-3.62-.723-7.859-.723-11.478V199.288l-14.063-8.582-71.348 42.188v97.923c0 45.083 36.398 81.481 80.654 81.481 14.994 0 28.54-3.619 40.637-10.754l59.974-34.33c23.576-12.201 39.914-37.224 39.914-65.04V200.012l-14.27-8.582zm-79.207 186.642c-6.41 6.41-11.374 10.03-18.509 13.546-4.24 1.447-9.306 3.619-13.545 4.963-4.24.724-8.583 1.448-12.822 1.448-4.24 0-11.375-.724-15.718-1.448-4.24-.724-8.582-2.171-12.098-3.62-3.619-1.447-7.858-3.618-11.374-6.41-9.306-6.411-13.546-12.202-17.889-17.889-2.171-3.619-4.24-7.135-6.41-11.478-1.449-4.239-2.896-7.858-3.62-12.201-1.448-4.963-1.448-10.03-1.448-14.27v-89.236l57.079-33.606v93.683c0 35.777 26.368 65.04 59.974 72.175-1.448 1.448-2.172 2.895-3.62 4.343zm78.483-64.42c-.724 3.619-2.171 7.135-3.619 10.754-1.447 3.619-4.24 8.582-7.135 12.201-4.24 4.964-8.582 8.583-19.233 14.994-9.306 4.963-17.164 6.41-22.128 7.858 3.62-8.582 3.62-17.888 3.62-27.918l-.725-97.923 49.944-26.471v95.13c0 3.516 0 7.86-.724 11.375z" fill="#e1f4fd" fill-rule="evenodd"/><path d="M360.892 110.353V99.702h2.171v10.754c0 3.619-3.205 6.928-7.755 6.928s-7.652-3.206-7.652-6.928V99.702h2.171v10.65c0 2.896 2.275 4.964 5.48 4.964 3.206 0 5.585-2.172 5.585-4.963zm66.177 5.17c3.31 0 4.964-2.275 5.067-2.172l1.241 1.344s-2.068 2.896-6.308 2.896c-5.376 0-8.789-4.136-8.789-8.996 0-4.757 3.31-8.686 8.583-8.686 4.032 0 6.1 2.068 6.1 2.068l-.93 1.55s-1.861-1.757-4.964-1.757c-3.825 0-6.617 2.895-6.617 6.825 0 3.929 2.688 6.928 6.617 6.928zm16.545-15.821h2.171v17.682h-2.171V99.702zm12.098 2.171v-2.171h13.236v2.171h-5.48v15.51h-2.172v-15.51h-5.584zm34.02-2.171h2.275l-6.515 9.823v7.859h-2.171v-7.859l-6.618-9.823h2.275l5.377 8.065 5.377-8.065zm-110.745 0h-5.997v17.682h5.997c4.963 0 8.376-3.412 8.376-8.79 0-5.376-3.413-8.892-8.376-8.892zm-.207 15.51h-3.515v-13.339h3.515c3.723 0 6.411 2.586 6.411 6.618 0 4.447-2.792 6.618-6.41 6.721zm22.852-15.51-6.824 17.682h2.171l1.861-5.067 7.135-1.55 2.379 6.617h2.171l-6.618-17.682h-2.275zm-2.171 10.547 3.309-8.169h.103l2.792 6.928-6.204 1.241z" fill="#2e3d49" fill-rule="evenodd"/><path d="m328.878 90.965-9.927 5.17v16.441c0 .62 0 1.448-.207 2.068a9.786 9.786 0 0 1-.517 1.862c-.103.103-.103.31-.207.413-.31 0-2.791-.723-3.825-1.55-.414-.31-.931-.621-1.345-1.138-.413-.414-.724-.93-1.137-1.344-.414-.414-.62-1.034-.93-1.551-.311-.517-.414-1.138-.518-1.758-.103-.517-.103-1.241-.103-1.758V92.206l-2.172-1.344-11.064 6.514v15.097c0 6.928 5.584 12.615 12.512 12.615 2.275 0 4.446-.517 6.308-1.654l9.306-5.274c3.619-1.861 6.204-5.79 6.204-10.03V92.31l-2.378-1.345zm-12.202 28.85c-1.034 1.034-1.758 1.55-2.895 2.068-.62.206-1.448.517-2.068.723-.62.207-1.344.31-1.965.31-.62 0-1.758-.103-2.378-.206a9.787 9.787 0 0 1-1.861-.517c-.517-.207-1.241-.517-1.758-1.034-1.448-1.034-2.068-1.861-2.792-2.792-.31-.517-.62-1.137-1.034-1.758-.207-.62-.414-1.24-.517-1.861-.207-.724-.207-1.551-.207-2.172V98.72l8.79-5.17v14.477c0 5.48 4.032 10.03 9.306 11.167-.31.207-.414.414-.62.62zm12.098-9.927c-.103.517-.31 1.137-.517 1.654-.206.517-.62 1.345-1.137 1.862-.62.723-1.344 1.344-2.999 2.274-1.447.724-2.688 1.035-3.412 1.241.517-1.344.517-2.792.517-4.343V97.48l7.755-4.137v14.684c-.103.62-.103 1.24-.207 1.86z" fill="#02b3e4" fill-rule="evenodd"/><path d="M305.302 165.579h-1.655l-4.136-6.618v.414c.104.723.104 1.344.104 1.964v4.343h-1.241v-8.375h1.654l4.136 6.617v-6.514h1.241v8.169h-.103zm10.547 0-.827-2.275h-3.206l-.827 2.275h-1.448l3.102-8.376h1.448l3.102 8.376h-1.344zm-1.24-3.516-.828-2.275c-.103-.103-.103-.413-.207-.724-.103-.31-.103-.517-.103-.723-.104.517-.207.93-.414 1.55l-.724 2.172h2.275zm13.959 3.516h-1.655l-4.136-6.618v.414c.103.723.103 1.344.103 1.964v4.343h-1.24v-8.375h1.654l4.136 6.617v-6.514h1.24v8.169h-.102zm12.718-4.136c0 1.344-.31 2.378-1.034 3.205-.724.724-1.654 1.138-2.895 1.138s-2.275-.414-2.895-1.138c-.62-.724-1.035-1.758-1.035-3.205 0-1.345.31-2.482 1.035-3.206.723-.724 1.654-1.137 2.895-1.137 1.24 0 2.171.413 2.895 1.137.724.724 1.034 1.758 1.034 3.206zm-6.308 0c0 1.034.207 1.757.62 2.378.415.517 1.035.827 1.862.827.827 0 1.448-.31 1.861-.827.414-.517.62-1.344.62-2.378s-.206-1.758-.62-2.379c-.413-.517-1.034-.827-1.86-.827-.828 0-1.448.31-1.862.827-.414.517-.62 1.345-.62 2.379zm18.096-.104c0 1.344-.414 2.379-1.137 3.206-.724.724-1.862 1.137-3.31 1.137h-2.378v-8.375h2.586c1.344 0 2.378.31 3.102 1.034.723.723 1.137 1.654 1.137 2.998zm-1.448 0c0-1.964-.93-2.998-2.791-2.998h-1.138v6.1h.93c1.965 0 3-1.034 3-3.102zm11.168 4.24h-4.757v-8.376h4.757v1.138h-3.309v2.274h3.102v1.138h-3.102v2.585h3.309v1.24zm8.376-4.55h3.102v4.136c-.517.207-1.034.31-1.448.31-.414.104-.93.104-1.448.104-1.24 0-2.275-.414-2.895-1.138-.62-.723-1.034-1.758-1.034-3.205 0-1.344.414-2.378 1.137-3.102.724-.724 1.862-1.138 3.206-1.138.827 0 1.654.207 2.482.517l-.517 1.138c-.724-.31-1.345-.517-2.068-.517-.931 0-1.552.31-2.068.827-.518.517-.828 1.344-.828 2.275 0 1.034.207 1.758.724 2.275.517.517 1.138.827 1.965.827.413 0 .93-.103 1.447-.207v-2.171h-1.757v-.931zm9.616.103h.93c.621 0 1.138-.103 1.345-.31.31-.207.414-.62.414-1.034 0-.517-.104-.827-.414-1.034-.31-.207-.724-.31-1.344-.31h-.931v2.688zm0 1.138v3.309h-1.344v-8.376h2.378c1.034 0 1.861.207 2.378.62.517.414.828 1.035.828 1.862 0 1.034-.517 1.758-1.655 2.171l2.378 3.723h-1.55l-1.965-3.31h-1.448zm13.96 3.309h-4.757v-8.376h4.756v1.138h-3.308v2.274h3.102v1.138h-3.102v2.585h3.308v1.24zm9.72 0h-4.757v-8.376h4.756v1.138h-3.309v2.274h3.102v1.138h-3.102v2.585h3.31v1.24zm16.75-5.79c0 .826-.31 1.55-.827 1.964-.62.413-1.344.724-2.481.724h-.828v3.102h-1.344v-8.376h2.378c1.035 0 1.862.207 2.379.62.517.414.724 1.138.724 1.965zm-4.136 1.55h.724c.724 0 1.241-.103 1.551-.413.31-.207.517-.62.517-1.138 0-.517-.103-.827-.413-1.034-.31-.207-.724-.31-1.345-.31h-.93v2.895h-.104zm10.34-.207h.931c.62 0 1.138-.103 1.345-.31a1.58 1.58 0 0 0 .413-1.034c0-.517-.103-.827-.413-1.034-.31-.207-.724-.31-1.345-.31h-.93v2.688zm0 1.138v3.309h-1.344v-8.376h2.379c1.034 0 1.861.207 2.378.62.517.414.827 1.035.827 1.862 0 1.034-.517 1.758-1.654 2.171l2.378 3.723h-1.55l-1.966-3.31h-1.447zm16.752-.827c0 1.344-.31 2.378-1.034 3.205s-1.654 1.138-2.895 1.138-2.275-.414-2.896-1.138c-.723-.724-1.034-1.758-1.034-3.205 0-1.345.31-2.482 1.034-3.206.724-.724 1.655-1.137 2.896-1.137 1.24 0 2.171.413 2.895 1.137.724.724 1.034 1.758 1.034 3.206zm-6.41 0c0 1.034.206 1.757.62 2.378.413.517 1.033.827 1.86.827.828 0 1.448-.31 1.862-.827.414-.517.62-1.344.62-2.378s-.206-1.758-.62-2.379c-.414-.517-1.034-.827-1.861-.827-.828 0-1.448.31-1.862.827-.413.517-.62 1.345-.62 2.379zm14.786-.414h3.102v4.136c-.517.207-1.034.31-1.448.31-.413.104-.93.104-1.447.104-1.241 0-2.275-.414-2.896-1.138-.62-.723-1.034-1.758-1.034-3.205 0-1.344.414-2.378 1.138-3.102.723-.724 1.86-1.138 3.205-1.138.827 0 1.655.207 2.482.517l-.517 1.138c-.724-.31-1.344-.517-2.068-.517-.93 0-1.551.31-2.068.827-.517.517-.828 1.344-.828 2.275 0 1.034.207 1.758.724 2.275.517.517 1.138.827 1.965.827.413 0 .93-.103 1.448-.207v-2.171h-1.758v-.931zm9.616.103h.93c.621 0 1.138-.103 1.345-.31a1.58 1.58 0 0 0 .414-1.034c0-.517-.104-.827-.414-1.034-.31-.207-.724-.31-1.344-.31h-.93v2.688zm0 1.138v3.309h-1.344v-8.376h2.378c1.034 0 1.861.207 2.378.62.517.414.828 1.035.828 1.862 0 1.034-.517 1.758-1.655 2.171l2.379 3.723h-1.655l-1.965-3.31h-1.344zm14.477 3.309-.828-2.275h-3.205l-.827 2.275h-1.448l3.102-8.376h1.448l3.102 8.376h-1.344zm-1.241-3.516-.827-2.275c-.104-.103-.104-.413-.207-.724-.104-.31-.207-.517-.207-.723-.104.517-.207.93-.414 1.55l-.724 2.172h2.379zm10.547 3.516-2.378-6.928c.103 1.034.103 1.964.103 2.895v4.033h-1.24v-8.376h1.964l2.275 6.618 2.378-6.618h1.965v8.376h-1.345v-5.791c0-.62 0-1.034.104-1.24l-2.482 6.927h-1.344v.104z" fill="#4b7693"/><path stroke-width="1.0619488099999999" stroke-linecap="square" stroke-miterlimit="10" fill="none" stroke="#bcbec0" d="M298.064 139.831h195.431"/><path d="M700.198 121.426c0 22.843-18.518 41.36-41.361 41.36-22.844 0-41.362-18.517-41.362-41.36s18.518-41.361 41.362-41.361c22.843 0 41.36 18.518 41.36 41.36z" fill="#02b3e4"/><path d="M698.233 121.426c0 21.758-17.638 39.396-39.396 39.396-21.759 0-39.397-17.638-39.397-39.396s17.638-39.397 39.397-39.397c21.758 0 39.396 17.639 39.396 39.397z" fill="#fff"/><path d="M658.837 159.375c-20.888 0-37.846-16.958-37.846-37.846 0-20.887 16.958-37.742 37.846-37.742 20.887 0 37.845 16.958 37.845 37.846-.103 20.784-16.958 37.742-37.845 37.742zm0-74.657c-20.37 0-36.915 16.544-36.915 36.915 0 20.37 16.544 36.914 36.915 36.914 20.37 0 36.914-16.544 36.914-36.914-.103-20.37-16.544-36.915-36.914-36.915z" fill="#02b3e4"/><path d="M645.394 108.5h.93l-1.964 5.274h-.93l-1.758-5.274h.93l1.138 3.31c.103.103.103.31.207.62.103.206.103.413.103.517 0-.207.103-.414.103-.62.104-.208.104-.414.207-.518l1.034-3.309zM650.358 113.774h-3V108.5h3v.724h-2.068v1.448h1.964v.724h-2.068v1.654h2.068l.104.724zM652.736 111.706v2.068h-.827v-5.17h1.447c.517 0 1.034.103 1.448.413.31.31.517.724.517 1.138 0 .62-.414 1.24-1.034 1.344l1.448 2.275h-.931l-1.24-2.068h-.828zm0-.724h.62c.31 0 .62-.103.827-.207.207-.207.31-.413.31-.62 0-.207-.103-.517-.31-.62-.31-.104-.62-.207-.827-.207h-.517v1.654h-.103zM657.079 113.774V108.5h.827v5.274h-.827zM660.594 113.774h-.827V108.5h2.895v.724h-2.068v1.655h1.965v.723h-1.965v2.172zM664.11 113.774V108.5h.827v5.274h-.827zM669.694 113.774h-2.895V108.5h2.895v.724h-2.068v1.448h2.068v.724h-2.068v1.654h2.068v.724zM675.588 111.085c.103.724-.207 1.551-.724 2.068-.62.517-1.344.724-2.068.724h-1.448v-5.273h1.655c.724 0 1.447.207 1.964.724.414.413.62 1.034.62 1.757zm-.93 0c0-1.24-.621-1.86-1.759-1.86h-.723v3.825h.62c.517.103 1.034-.103 1.448-.517.31-.31.517-.827.413-1.448zM631.228 118.53c-.414 0-.93.207-1.137.517a2.896 2.896 0 0 0 0 2.896c.31.31.723.517 1.137.517.207 0 .414 0 .62-.104.207 0 .414-.103.62-.206v.723c-.413.207-.93.207-1.447.207-.62 0-1.344-.207-1.758-.724-.413-.517-.62-1.24-.62-1.964 0-.517.103-.931.31-1.448.207-.414.517-.724.827-.93.414-.207.828-.31 1.345-.31s1.034.103 1.447.31l-.31.723c-.207-.103-.414-.207-.517-.207h-.517zM637.019 123.08h-3v-5.273h3v.723h-2.068v1.448h1.964v.724h-1.964v1.654h2.068v.724zM639.5 121.012v2.068h-.827v-5.17h1.448c.517 0 1.034.103 1.55.414.31.31.518.723.518 1.137 0 .62-.414 1.24-1.034 1.344l1.447 2.275h-.93l-1.241-2.068h-.93zm0-.724h.62c.31 0 .621-.103.828-.207.207-.206.31-.413.31-.62 0-.207-.103-.517-.31-.62-.31-.104-.62-.207-.93-.207h-.518v1.654zM645.601 123.08h-.93v-4.446h-1.552v-.827h3.93v.827H645.6v4.446zM648.393 123.08v-5.273h.827v5.273h-.827zM651.909 123.08h-.828v-5.273h2.896v.723h-2.068v1.655h1.964v.724h-1.964v2.171zM655.424 123.08v-5.273h.827v5.273h-.827zM660.284 118.53c-.413 0-.827.207-1.137.517-.31.414-.414.931-.414 1.448 0 .517.104 1.034.414 1.448.31.31.724.517 1.137.517.207 0 .414 0 .62-.104.207 0 .414-.103.621-.206v.723c-.414.207-.93.207-1.344.207-.62 0-1.344-.207-1.758-.724-.414-.517-.62-1.24-.62-1.964 0-.517.103-.93.31-1.448.207-.414.517-.724.827-.93.414-.207.827-.31 1.344-.31.517 0 1.034.103 1.448.31l-.31.723c-.207-.103-.414-.207-.62-.207h-.518zM666.385 123.08l-.517-1.447h-1.965l-.517 1.447h-.93l1.964-5.273h.931l1.965 5.273h-.931zm-.724-2.171-.517-1.448c0-.103-.103-.207-.207-.414-.103-.206-.103-.31-.103-.413l-.31.93-.517 1.345h1.654zM670.314 123.08h-.93v-4.446h-1.551v-.827h3.929v.827h-1.448v4.446zM676.001 123.08h-2.895v-5.273h2.895v.723h-2.068v1.448h1.965v.724h-1.965v1.654h2.068v.724zM684.584 120.495c0 .724-.207 1.448-.62 1.965-.518.517-1.138.724-1.862.724-.724 0-1.344-.207-1.861-.724-.414-.517-.724-1.241-.62-1.965 0-.724.206-1.448.62-1.965a2.695 2.695 0 0 1 3.62 0c.516.517.826 1.241.723 1.965zm-4.033 0c0 .517.104 1.034.414 1.448.31.31.724.517 1.137.517.414 0 .827-.207 1.138-.517.31-.414.413-.93.31-1.448 0-.517-.103-1.034-.414-1.448-.31-.31-.724-.517-1.137-.517-.414 0-.827.207-1.138.517-.206.414-.31.931-.31 1.448zM687.066 123.08h-.931v-5.273h2.999v.723h-2.068v1.655h1.964v.724h-1.964v2.171zM635.881 127.837c-.413 0-.93.206-1.137.517-.31.413-.414.93-.414 1.447s.103 1.034.414 1.448c.31.31.724.517 1.137.517.207 0 .414 0 .62-.103.207 0 .414-.104.621-.207v.724c-.414.206-.93.206-1.448.206-.62 0-1.344-.206-1.757-.723-.414-.62-.62-1.241-.62-1.965 0-.517.103-.93.31-1.448.206-.413.516-.724.826-.93.414-.207.828-.31 1.345-.31s1.034.103 1.447.31l-.103.827c-.207-.104-.414-.207-.517-.207-.31-.103-.517-.103-.724-.103zM643.43 129.801c0 .724-.207 1.448-.62 1.965-.518.517-1.138.724-1.862.724-.62 0-1.344-.207-1.758-.724-.414-.517-.724-1.24-.62-1.965 0-.723.206-1.447.62-1.964.517-.517 1.137-.724 1.861-.724s1.345.207 1.862.724c.31.517.517 1.24.517 1.964zm-4.033 0c0 .517.103 1.034.413 1.448.31.31.724.517 1.138.517.414 0 .827-.207 1.137-.517.31-.414.414-.93.414-1.448 0-.517-.103-1.034-.414-1.447-.31-.31-.723-.517-1.137-.517-.414 0-.827.206-1.138.517-.31.413-.413.93-.413 1.447zM647.255 132.386l-1.55-4.343c0 .62.103 1.241.103 1.862v2.585h-.827v-5.274h1.24l1.448 4.136 1.551-4.136h1.241v5.274h-.93v-4.343l-1.552 4.343-.724-.104zM655.735 128.767c0 .517-.207.93-.517 1.241-.414.31-1.035.517-1.552.414h-.517v1.964h-.827v-5.273h1.551c.517 0 1.034.103 1.448.413.31.31.414.724.414 1.241zm-2.689.93h.414c.31 0 .723 0 .93-.206.31-.413.31-1.034 0-1.344-.207-.207-.517-.207-.827-.207h-.62l.103 1.758zM657.182 132.386v-5.273h.827v4.55h2.275v.723h-3.102zM664.524 132.386h-2.896v-5.273h2.896v.724h-2.068v1.447h1.964v.724h-1.964v1.655h2.068v.723zM667.936 132.386h-.827v-4.446h-1.551v-.827h3.93v.827h-1.552v4.446zM670.728 132.386v-5.273h.827v5.273h-.827zM678.07 129.801c0 .724-.207 1.448-.62 1.965-.518.517-1.138.724-1.862.724-.724 0-1.344-.207-1.861-.724-.414-.517-.724-1.24-.62-1.965 0-.723.206-1.447.62-1.964a2.695 2.695 0 0 1 3.619 0c.517.517.724 1.24.724 1.964zm-4.033 0c0 .517.103 1.034.413 1.448.31.31.724.517 1.138.517.413 0 .827-.207 1.137-.517.31-.414.414-.93.414-1.448 0-.517-.103-1.034-.414-1.447-.31-.31-.724-.517-1.137-.517-.414 0-.827.206-1.138.517-.31.413-.413.93-.413 1.447zM683.964 132.386h-1.035l-2.585-4.136V132.387h-.827v-5.274h1.034l2.585 4.136v-4.136h.828v5.273z" fill="#4b7693"/><path d="M675.07 99.09h-2.377c.62-.516 1.344-.93 1.964-1.447-.207-.724-.413-1.448-.724-2.275.724.414 1.448.827 2.068 1.344l2.172-1.24-.93 2.171c.62.517 1.24 1.137 1.757 1.654l-2.481-.31c-.414.724-.828 1.344-1.241 2.068 0-.517-.104-1.24-.207-1.964zM667.522 95.058c-.723.207-1.447.414-2.171.724.414-.724.827-1.344 1.344-1.965-.517-.62-.93-1.24-1.55-1.861l2.48.62c.518-.62 1.035-1.24 1.655-1.861 0 .827 0 1.551-.103 2.378.827.31 1.55.62 2.275 1.034-.827.104-1.655.31-2.482.517-.103.828-.207 1.551-.414 2.275-.31-.62-.62-1.24-1.034-1.861zM658.837 93.61c-.62.414-1.241.93-1.862 1.345.104-.724.31-1.552.517-2.275-.723-.414-1.344-.828-2.068-1.241.827-.104 1.655-.207 2.585-.207.31-.724.517-1.448.828-2.275.31.724.62 1.448.827 2.275.827 0 1.758.103 2.585.207l-2.172 1.24c.207.724.31 1.552.517 2.276-.517-.414-1.034-.931-1.757-1.345zM650.254 94.955c-.413.62-.827 1.24-1.137 1.86-.104-.723-.207-1.55-.31-2.274-.828-.207-1.655-.414-2.482-.517.724-.31 1.55-.724 2.275-1.034v-2.378c.517.62 1.137 1.24 1.654 1.86l2.482-.62-1.551 1.862c.413.62.93 1.344 1.344 1.964-.724-.31-1.551-.62-2.275-.723zM642.706 98.884c-.207.724-.31 1.447-.414 2.171-.413-.62-.827-1.344-1.24-2.068-.828 0-1.655.104-2.482.31.62-.62 1.137-1.137 1.86-1.654l-.93-2.171 2.172 1.24c.724-.517 1.447-.93 2.171-1.344-.31.724-.517 1.448-.724 2.172.724.517 1.345.93 1.965 1.447-.827-.103-1.654-.103-2.378-.103zM676.622 146.553c.827.103 1.551.206 2.378.31l-1.758-1.758c.31-.724.724-1.344 1.034-2.068-.827.31-1.55.62-2.275 1.034-.62-.517-1.344-1.034-2.068-1.551.207.827.414 1.551.62 2.275-.723.413-1.343.93-2.067 1.447.827 0 1.654 0 2.481.104.31.724.517 1.447.931 2.171.207-.62.414-1.344.724-1.964zM669.28 151.31c.724.103 1.551.31 2.275.516l-1.55-1.861c.413-.724.826-1.344 1.24-1.965a9.484 9.484 0 0 0-2.378.93c-.62-.516-1.241-1.137-1.862-1.654.104.828.207 1.551.31 2.379l-2.17 1.24c.826 0 1.654.104 2.48.207.208.724.414 1.551.621 2.275.31-.724.62-1.447 1.034-2.068zM658.94 153.584c.62.414 1.24.93 1.861 1.344-.207-.724-.31-1.55-.517-2.275.62-.413 1.344-.93 2.068-1.24-.827-.104-1.758-.207-2.585-.207-.31-.724-.517-1.448-.827-2.275-.31.724-.517 1.448-.827 2.275-.827 0-1.758.103-2.585.207l2.171 1.24c-.207.724-.31 1.551-.517 2.275.517-.413 1.138-.827 1.758-1.344zM648.6 151.516c.413.62.724 1.344 1.034 1.965.207-.724.31-1.551.517-2.275.827-.104 1.654-.31 2.481-.414-.723-.413-1.447-.827-2.274-1.137.103-.828.103-1.551.206-2.379-.62.517-1.137 1.138-1.758 1.758-.827-.31-1.654-.517-2.481-.724.517.62 1.034 1.241 1.448 1.965-.518.62-.931 1.241-1.448 1.861.724-.206 1.55-.413 2.275-.62zM640.844 146.553c.207.723.31 1.447.414 2.171.414-.62.827-1.344 1.24-2.068l2.483.31c-.517-.62-1.138-1.137-1.758-1.758l.93-2.171c-.723.414-1.55.724-2.274 1.137-.62-.517-1.345-.93-2.069-1.447.31.724.517 1.447.724 2.275-.724.413-1.344.93-2.068 1.344.827.207 1.655.207 2.378.207z" fill="#02b3e4"/><path stroke-linecap="square" stroke-miterlimit="10" fill="none" stroke="#bcbec0" d="M446.86 488.506h175.786M176.979 488.506h175.785M171.809 404.233H616.44" stroke-width="1.03403"/><path d="M247.913 476.718c1.138-1.447 2.275-2.998 3.413-4.446-1.552-1.551-.931-3.205 1.447-4.24-.724.931-1.344 1.862-2.068 2.689.207.207.414.31.62.517 2.792-.724 3.62-3.516 5.17-5.584-.827.414-1.654.827-2.378 1.241.724-.724 1.448-1.551 2.275-2.068 1.344-.724 1.965-1.758 2.068-3.516-2.998.414-6.1.517-8.892 1.345-1.448.413-2.585 2.274-3.826 3.515-1.448 1.344-3.102 2.585-4.447 4.136-1.24 1.448-2.274 2.999-3.205 4.654-3.412 5.997-6.514 12.201-10.237 17.888-6.1 9.203-13.753 16.855-24.3 20.888-7.238 2.688-14.786 3.412-22.335 1.137-7.341-2.171-9.926-10.03-8.686-15.51 1.448-7.032 5.584-12.305 10.961-16.855 5.998-5.067 13.236-7.755 20.474-10.34 11.581-4.136 23.576-6.928 35.777-8.686 3.62-.517 5.274-2.068 6.825-5.17 2.275-4.757 5.067-9.203 7.859-13.65 1.344-2.068 3.722-3.102 6.1-3.515 1.965-.31 2.896 1.034 2.275 2.998-1.24 3.826-3.619 7.032-5.997 10.134-1.758 2.378-3.723 4.55-5.894 7.238 2.895-.31 5.48-.517 8.065-.93.414-.104.828-.724 1.138-1.138 1.137-1.654 2.171-3.309 3.309-4.86.31-.414.724-.827 1.137-1.137.31-.207.827-.104 1.138-.104 0 .414.103.827 0 1.138-.828 1.447-1.758 2.792-2.586 4.136-.31.517-.62.93-.723 1.758.723-.207 1.447-.31 2.068-.62 6.1-3.413 12.098-6.825 18.095-10.238.724-.413 1.344-1.24 1.655-1.964 1.034-2.275 1.758-4.653 2.688-7.032.207 0 .31.104.517.104-.827 2.378-1.654 4.86-2.585 7.652 1.138-.517 1.861-.724 2.585-1.138 12.098-5.894 24.507-10.547 37.846-12.822 5.997-1.034 11.994-1.654 17.992-.827.93.103 1.964.414 2.895.724 2.482.93 2.999 2.792 1.138 4.756-1.448 1.551-3 2.999-4.757 4.033-4.55 2.688-9.203 5.17-13.856 7.755-.103-.207-.207-.31-.31-.517 2.068-1.137 4.136-2.171 6.204-3.309 3.826-2.171 7.962-3.929 10.96-7.238.828-.93 1.965-2.378 1.655-3.205-.207-.931-1.965-1.862-3.102-1.965-3.516-.414-7.135-.724-10.65-.414-11.478.828-22.542 3.723-33.193 8.066-4.963 1.964-9.823 4.343-14.683 6.618-.827.413-1.448 1.24-1.861 2.068a158.06 158.06 0 0 0-4.24 9.202c1.965-.827 3.62-1.55 5.274-2.171 5.273-1.965 10.65-4.033 16.027-5.79 1.758-.518 3.93-.414 5.79-.104 3 .517 4.24 2.792 4.24 5.79 0 3-1.654 5.17-3.102 7.446-2.275 3.619-4.756 7.031-7.238 10.547-.103.207-.414.31-.827.31.103-.31.31-.62.413-.827 2.689-4.136 5.48-8.17 8.066-12.409.93-1.447 1.55-3.102 1.964-4.86.724-2.895-.93-5.066-3.722-5.583-3.309-.62-6.514.206-9.513 1.344-5.79 2.171-11.581 4.55-17.372 6.928-.724.31-1.24 1.24-1.654 2.068-1.448 2.895-2.792 5.79-3.93 8.893.31-.517.517-1.034.931-1.448 1.344-1.24 2.689-2.585 4.033-3.723.31-.206.93-.103 1.344.104.207.103.207.827.103 1.137-1.447 2.896-2.998 5.687-4.55 8.48l-1.24 2.17c-.104-.103-.31-.206-.414-.206 1.861-3.62 3.826-7.238 5.687-10.857-.103-.104-.31-.207-.413-.31-1.655.723-2.999 1.86-4.033 3.412a125.045 125.045 0 0 0-4.343 6.824c-.827 1.448-2.171 1.448-3.412 1.034-1.034-.413-1.861-.206-2.689.517.724-.827 1.345-1.757 2.068-2.585-.413 1.034.31 1.448 1.138 1.448.724 0 1.861-.31 1.965-.724.413-1.861.517-3.826.827-6.1-1.551 2.067-2.689 3.618-3.826 5.273 1.861-3.102 3.516-6.204 3.93-9.927.206 0 .413.104.62.104v6.928h.31c1.861-3.723 3.722-7.549 5.584-11.271-.104-.104-.207-.104-.31-.207l-14.27 6.514c.93.414 1.758.724 2.481.93.828-.62 1.551-1.24 2.275-1.964l.414.414c-.207.414-.31.93-.62 1.24-1.345 1.862-2.586 3.723-3.93 5.584-1.344 1.862-1.55 3.62-.517 5.377.724-.413 1.344-.723 2.068-1.137-.31.414-.62 1.034-1.034 1.344-1.137.827-2.068.31-2.171-1.137 0-.62 0-1.241-.414-2.068-.93.93-1.965 1.758-2.895 2.688-1.655 1.655-2.482 1.551-3.826-.413-.207.206-.517.413-.724.62-.827.827-1.654 1.758-2.792 1.034-1.034-.62-1.964-1.551-1.447-3.102.206-.62 0-1.551 0-2.482-.621.827-1.241 1.138-1.862 1.551zm-4.653-13.132c-1.034.104-2.068.207-2.999.31-6.72 1.345-13.442 2.379-20.06 4.033-6.204 1.551-12.305 3.516-18.302 5.584-9.306 3.205-17.992 7.445-24.093 15.717-2.999 4.033-5.48 8.376-4.963 13.65.517 5.79 3.309 9.926 9.1 11.477 5.583 1.551 11.27 1.344 16.957.103 9.617-2.068 16.855-8.168 23.162-15.2 5.17-5.687 8.79-12.408 12.305-19.13 1.138-2.17 2.275-4.342 3.413-6.617-2.275 1.344-4.136 2.792-6.204 4.24-.517.31-1.241.413-1.862.516 6.101-3.412 11.064-7.651 13.546-14.683zm22.749-3.205c-1.655.723-3.31 1.24-4.86 2.171-2.895 1.655-2.895 1.965-1.861 5.067.413 1.24.827 1.447 1.964.93 4.447-2.068 8.996-4.032 13.443-5.997 1.24-.517 2.895-1.034 3.515-2.068 1.862-3.205 3.413-6.721 5.067-10.03l-.414-.414c-5.79 3.206-11.58 6.411-17.578 9.824.414.31.517.413.62.517.104 0 .31.103.104 0zm-20.888 1.757c3.826.207 4.447-.31 5.998-2.274 2.585-3.206 5.066-6.411 7.445-9.72 1.24-1.758 2.275-3.723 3.205-5.79.31-.621.31-1.759-.103-2.172-.414-.414-1.551-.517-2.275-.31-2.275.516-4.033 2.068-5.274 3.929-1.86 2.792-3.619 5.584-5.17 8.582-1.344 2.482-2.481 5.067-3.826 7.755zm13.546 9.307c-.207-.207-.31-.517-.517-.724-1.137.207-2.275.414-3.412.724-3.62.724-5.687 5.17-3.93 8.375.62 1.034 1.448 1.448 2.172.414 2.068-2.999 3.826-5.894 5.687-8.79zm-2.275 9.1c.62-.311.93-.311 1.138-.518a132.494 132.494 0 0 0 5.066-5.687c.62-.827 1.034-1.758 1.448-2.688.207-.517.207-1.241.31-1.862-.62 0-1.24-.207-1.758 0-4.136 1.655-5.377 5.584-6.824 9.203-.207.31.413 1.034.62 1.551zm-14.683-12.306.414.414 5.79-5.377c-.103-.207-.207-.414-.413-.62-1.034.31-2.482.413-3.206 1.137-1.034 1.24-1.654 2.999-2.585 4.446zm13.029 1.551c.103.207.207.414.413.62 1.241-.413 2.689-.62 3.62-1.447.413-.31-.414-1.965-.724-3.309-1.345 1.655-2.275 2.895-3.31 4.136zm5.584-9.72c.206.104.31.207.517.414 1.344-1.965 2.688-3.826 3.929-5.79-.207-.104-.414-.31-.62-.414-1.241 1.861-2.586 3.826-3.826 5.79zM311.713 473.926c.413-.62.62-1.344 1.137-1.757 1.758-1.758 2.792-3.826 2.999-6.411 0-.31.207-.62.62-.828-.103.724-.206 1.345-.31 2.172a166.96 166.96 0 0 0 4.447-2.792c.206.207.413.31.62.517-.414.827-.724 1.758-1.24 2.482-1.138 1.654-2.38 3.205-3.413 4.963-.414.62-.414 1.448-.724 2.482 2.275-1.034 3.102-2.896 4.136-4.447 1.034-1.55 2.172-2.998 3.309-4.55.207.104.31.207.517.31l-3.102 4.654c-1.034 1.55-1.965 3.205-.827 5.273.413-.103.827-.31 1.344-.517-1.551 1.758-1.655 1.758-2.895-1.344-.104 0-.207 0-.31.104-.828.31-1.552.723-2.379 1.034 0-.931-.413-1.965 0-2.689.724-1.55 1.861-2.895 2.792-4.343.62-.827 1.24-1.654 1.655-2.688-2.482.62-3.826 2.275-4.757 4.446-.827 1.655-1.448 3.412-2.378 5.067-.31.62-.93 1.034-1.344 1.447l-.62-.31c.31-.827.516-1.55.723-2.275v1.551c.103 0 .207 0 .31.104.62-1.138 1.137-2.172 1.758-3.31-.104 0-.104-.102-.207-.102-.62.517-1.24 1.137-1.861 1.757z" fill="#2d3d49" fill-rule="evenodd"/><path d="M247.913 476.718c-1.654 1.551-3.205 3.31-4.963 4.757-1.138.93-2.275-.104-2.895-1.034-.724.413-1.448.724-2.068 1.034 2.274-2.999 4.342-5.998 6.617-8.79.517-.723 1.345-1.137 2.068-1.654.207.104.31.207.517.31-.206.517-.31 1.138-.62 1.551-1.448 1.758-2.895 3.516-4.343 5.17-.724.828-1.654 1.758-.724 2.586.517.413 2.068 0 2.896-.517 1.137-.724 2.068-1.965 2.998-3 .104-.206.31-.31.517-.413zM304.578 474.443c-.31.207-.93.517-.93.62.413 1.448-.724 1.552-1.448 2.069-.104-.103-.31-.103-.414-.207.517-.93.827-1.861 1.448-2.688 2.275-2.999 4.653-5.894 6.928-8.893 1.861-2.378 3.516-4.86 5.273-7.342.62-.93 1.034-1.964 1.655-2.895.103 1.758-.93 3.102-1.861 4.55-2.068 2.998-4.24 5.79-6.308 8.789l-1.448 1.655c-.827.93-1.654 1.86-2.378 2.895-.207.31-.31.93-.517 1.447zM284.208 475.684c1.344-2.585 2.792-5.17 4.136-7.858.103 0 .207.103.31.103-.93 2.585-1.965 5.17-3.102 8.169 3.309-1.344 4.033-4.757 6.514-6.204l.414.413c-.724 1.034-1.448 2.068-2.172 3.206-1.24 2.068-1.034 2.481 1.345 2.585.103 0 .31.103.517.103-1.655.827-2.379.517-3.723-1.447-.517.62-.93 1.137-1.344 1.654-.827.827-1.655 1.241-2.068-.517-.104-.103-.62-.103-.827-.207-.104 0 0 0 0 0zM279.865 476.718c-.517.62-.93 1.241-1.448 1.758-.207.207-1.034.104-1.137-.103-.31-.724-.724-1.655-.517-2.275.723-1.655 1.55-3.309 2.585-4.757 1.24-1.55 2.792-2.998 4.446-4.24.414-.31 1.758-.103 2.275.311.414.414.207 1.448 0 2.171-.31-.723-.62-1.964-.93-1.964-.828 0-1.965.31-2.379.93-1.758 2.275-3.412 4.757-4.963 7.239-.31.517-.207 1.24-.31 2.171 1.034-.517 1.757-.827 2.378-1.24zM331.566 473.513c-1.758 1.344-1.758 1.344-4.24-1.241-.516.517-.93 1.137-1.447 1.448-.414.31-1.24.517-1.654.31-.31-.207-.724-1.138-.517-1.551 1.034-2.378 2.274-4.653 3.412-6.928l.62.31c-.724 1.24-1.447 2.378-1.964 3.62-.517 1.24-1.655 2.377-.828 4.239 1.655-1.655 3.206-3.103 4.86-4.757-.517 1.24-1.344 2.275-1.137 3.309.207 1.448 1.654 1.551 2.895 1.24z" fill="#2d3d49" fill-rule="evenodd"/><path d="M279.865 476.718c1.344-2.585 2.792-5.17 4.24-7.755.103-.207.516-.31 1.137-.62-1.138 2.998-3.413 5.17-3.102 8.582.93-.517 1.447-.93 2.068-1.24-.62.723-1.034 1.447-1.758 1.964-.207.103-1.034-.724-1.758-1.241-.103 0-.414.103-.827.31zM307.577 469.997c.517-.517.93-1.137 1.447-1.654 1.345-1.345 2.689-2.792 4.033-4.136.62-.62 1.344-1.138 2.068-1.758.207.103.31.206.517.31l-1.861 4.033c-.104 0-.31-.104-.414-.207.207-.724.517-1.448.724-2.172-.103-.103-.207-.103-.31-.207-2.172 2.275-4.343 4.55-6.411 6.825.103-.31.103-.724.207-1.034zM312.954 468.24c-2.172 2.998-4.343 5.997-6.411 9.099 1.137-3.723 3.929-6.308 6.1-9.307 0 0 .104.104.31.207z" fill="#2d3d49" fill-rule="evenodd"/></g></g></g></g></g><clipPath id="f"><path transform="matrix(.75 0 0 .75 28.5 28.5)" d="M0 0h980v740H0V0z" fill-rule="evenodd"/></clipPath><g clip-path="url(#f)"><symbol id="g"><path d="M.337.65H0V0h.045v.31h.27v.035h-.27v.27h.292v.034z"/></symbol><symbol id="h"><path d="m.38.255.009.036a.239.239 0 0 1 .006.048C.395.397.379.441.35.472A.168.168 0 0 1 .224.52.208.208 0 0 1 .06.447.242.242 0 0 1 .016.362a.348.348 0 0 1 0-.212.212.212 0 0 1 .122-.133A.246.246 0 0 1 .234 0 .413.413 0 0 1 .37.025L.357.057A.226.226 0 0 0 .299.042.53.53 0 0 0 .24.038a.222.222 0 0 0-.084.014.16.16 0 0 0-.06.044.197.197 0 0 0-.037.068.327.327 0 0 0-.013.091H.38M.217.482C.259.482.292.47.314.447.338.424.35.389.35.342A.191.191 0 0 0 .344.29H.047A.26.26 0 0 0 .06.365C.069.39.08.41.095.426c.015.018.032.031.052.04.02.01.044.016.07.016z"/></symbol><symbol id="i"><path d="M0 .723V.048a.186.186 0 0 1 .035-.02.4.4 0 0 1 .087-.025.265.265 0 0 1 .145.015c.03.012.055.03.077.053a.243.243 0 0 1 .05.084.32.32 0 0 1 .001.212A.233.233 0 0 1 .277.5.21.21 0 0 1 .19.52.286.286 0 0 1 .044.477v.255L0 .722M.366.256A.283.283 0 0 0 .35.165a.197.197 0 0 0-.04-.07A.175.175 0 0 0 .25.053.208.208 0 0 0 .17.038a.276.276 0 0 0-.126.029v.375a.273.273 0 0 0 .138.04.184.184 0 0 0 .076-.016A.158.158 0 0 0 .316.42.205.205 0 0 0 .353.35.312.312 0 0 0 .366.254z"/></symbol><symbol id="j"><path d="M0 .5V0h.044v.386A.346.346 0 0 0 .21.462V.51A.25.25 0 0 1 .129.483.42.42 0 0 1 .04.42L.032.5H0z"/></symbol><symbol id="k"><path d="M.374.01v.5H.33V.12A.451.451 0 0 0 .25.067.234.234 0 0 0 .204.05.168.168 0 0 0 .16.042C.12.042.09.054.07.08.053.103.043.139.044.189v.32H0V.182C0 .152.003.127.008.105A.163.163 0 0 1 .035.048.124.124 0 0 1 .081.012a.193.193 0 0 1 .12-.005.33.33 0 0 1 .134.078L.343.01h.031z"/></symbol><symbol id="l"><path d="M.342.346a.23.23 0 0 1-.01.071.143.143 0 0 1-.086.09.205.205 0 0 1-.072.013.275.275 0 0 1-.128-.033.286.286 0 0 1-.022-.012L.04.445a.31.31 0 0 0 .13.036.152.152 0 0 0 .058-.01.124.124 0 0 0 .047-.037C.29.415.299.384.298.339V.274a.562.562 0 0 1-.12.002.301.301 0 0 1-.073-.015A.205.205 0 0 1 .05.23.129.129 0 0 1 .013.186.126.126 0 0 1 0 .129.121.121 0 0 1 .085.01.16.16 0 0 1 .14 0C.17 0 .2.007.227.022a.237.237 0 0 1 .076.064c0-.029.007-.05.02-.065A.067.067 0 0 1 .374 0C.383 0 .39.001.398.003A.056.056 0 0 1 .414.01L.408.038A.059.059 0 0 0 .382.032a.034.034 0 0 0-.03.012C.347.052.343.066.343.085v.26M.046.136A.09.09 0 0 0 .081.21c.023.018.054.03.094.035a.536.536 0 0 0 .123 0V.12A.225.225 0 0 0 .231.06a.16.16 0 0 0-.08-.023c-.034 0-.06.009-.078.026a.097.097 0 0 0-.027.072z"/></symbol><symbol id="m"><path d="m.414.703-.17-.46-.198.46H0L.222.196A.648.648 0 0 0 .19.125a.215.215 0 0 0-.035-.05.11.11 0 0 0-.04-.028.128.128 0 0 0-.078-.006.125.125 0 0 0-.021.006L.003.012A.17.17 0 0 1 .065 0C.089 0 .11.003.129.01a.139.139 0 0 1 .052.036.283.283 0 0 1 .046.066c.015.027.03.061.045.102L.46.703H.414z"/></symbol><symbol id="n"><path d="M0 0z"/></symbol><symbol id="o"><path d="M.251.039a.178.178 0 0 0-.087.02.184.184 0 0 0-.063.062.318.318 0 0 0-.039.096.541.541 0 0 0 0 .243c.01.036.022.066.04.09a.168.168 0 0 0 .144.08.172.172 0 0 0 .149-.084.304.304 0 0 0 .04-.096.532.532 0 0 0-.001-.243.297.297 0 0 0-.04-.091.164.164 0 0 0-.142-.077M.244 0a.23.23 0 0 1 .108.024c.03.017.057.04.078.07A.34.34 0 0 1 .48.201a.532.532 0 0 1 0 .266.342.342 0 0 1-.049.106.224.224 0 0 1-.076.07.227.227 0 0 1-.29-.07.32.32 0 0 1-.048-.107.521.521 0 0 1 0-.266.34.34 0 0 1 .048-.106.224.224 0 0 1 .078-.07A.217.217 0 0 1 .245 0z"/></symbol><symbol id="p"><path d="M.324.195A.157.157 0 0 0 .28.085.155.155 0 0 0 .223.051.22.22 0 0 0 .147.039a.29.29 0 0 0-.133.028L0 .034A.205.205 0 0 1 .053.01a.328.328 0 0 1 .183.004c.028.01.051.024.072.042A.197.197 0 0 1 .355.28a.176.176 0 0 1-.046.063.21.21 0 0 1-.07.042.27.27 0 0 1-.092.015.645.645 0 0 1-.08-.005l.008.23h.266v.035H.035L.024.351A.91.91 0 0 0 .14.362C.17.362.196.358.219.35A.154.154 0 0 0 .277.314.143.143 0 0 0 .312.262.184.184 0 0 0 .324.195z"/></symbol><symbol id="q"><path d="M.02 0C.03.004.039.01.048.019a.168.168 0 0 1 .05.066.125.125 0 0 1 .006.08.135.135 0 0 1-.02.048 4.32 4.32 0 0 0-.01.013L.03.213A.132.132 0 0 0 .062.126.109.109 0 0 0 .04.062.186.186 0 0 0 0 .025L.022 0z"/></symbol><symbol id="r"><path d="M0 0h.388v.035H.052l.14.151C.231.23.263.269.29.303a.479.479 0 0 1 .058.095c.012.03.019.06.019.089a.17.17 0 0 1-.055.125.177.177 0 0 1-.062.034.25.25 0 0 1-.174-.005A1.338 1.338 0 0 1 .018.614l.016-.03a.259.259 0 0 0 .051.022.237.237 0 0 0 .08.015C.215.62.254.607.279.583.305.559.318.525.318.48A.183.183 0 0 0 .303.412a.397.397 0 0 0-.05-.085A1.556 1.556 0 0 0 .156.208 8.172 8.172 0 0 0 0 .038V0z"/></symbol><symbol id="s"><path d="M.3.494a.122.122 0 0 0-.011-.05.154.154 0 0 0-.06-.067A.219.219 0 0 0 .197.36H.11V.325h.035c.055 0 .093-.01.116-.03A.16.16 0 0 0 .309.238.157.157 0 0 0 .322.175.125.125 0 0 0 .269.073.173.173 0 0 0 .216.047a.22.22 0 0 0-.06-.008.405.405 0 0 0-.118.017.376.376 0 0 0-.024.01L0 .034A.296.296 0 0 1 .146 0c.035 0 .065.004.092.012.028.009.05.02.07.037a.168.168 0 0 1 .06.133.162.162 0 0 1-.08.14.23.23 0 0 1-.045.023.216.216 0 0 1 .064.053c.011.013.02.029.027.046a.16.16 0 0 1-.101.211.25.25 0 0 1-.127.01.416.416 0 0 1-.094-.032l.016-.03A.34.34 0 0 0 .141.63C.194.63.233.617.26.594c.026-.024.04-.057.04-.1z"/></symbol><use xlink:href="#g" transform="matrix(12 0 0 -12 450.363 478.5)"/><use xlink:href="#h" transform="matrix(12 0 0 -12 455.602 478.617)"/><use xlink:href="#i" transform="matrix(12 0 0 -12 462.094 478.617)"/><use xlink:href="#j" transform="matrix(12 0 0 -12 468.797 478.5)"/><use xlink:href="#k" transform="matrix(12 0 0 -12 472.701 478.617)"/><use xlink:href="#l" transform="matrix(12 0 0 -12 478.887 478.617)"/><use xlink:href="#j" transform="matrix(12 0 0 -12 485.285 478.5)"/><use xlink:href="#m" transform="matrix(12 0 0 -12 488.396 480.941)"/><use xlink:href="#n" transform="matrix(12 0 0 -12 494.18 478.5)"/><use xlink:href="#o" transform="matrix(12 0 0 -12 497.461 478.617)"/><use xlink:href="#p" transform="matrix(12 0 0 -12 504.879 478.617)"/><use xlink:href="#q" transform="matrix(12 0 0 -12 510.41 480.393)"/><use xlink:href="#n" transform="matrix(12 0 0 -12 512.332 478.5)"/><use xlink:href="#r" transform="matrix(12 0 0 -12 515.555 478.5)"/><use xlink:href="#o" transform="matrix(12 0 0 -12 521.59 478.617)"/><use xlink:href="#r" transform="matrix(12 0 0 -12 529.008 478.5)"/><use xlink:href="#s" transform="matrix(12 0 0 -12 534.984 478.617)"/></g><clipPath id="t"><path transform="matrix(.75 0 0 .75 28.5 28.5)" d="M0 0h980v740H0V0z" fill-rule="evenodd"/></clipPath><g clip-path="url(#t)"><clipPath id="u"><path transform="matrix(.75 0 0 .75 28.5 28.5)" d="M147 205h686v143H147V205z" fill-rule="evenodd"/></clipPath><g clip-path="url(#u)"><symbol id="v"><path d="M0 .043a.272.272 0 0 1 .073-.03A.413.413 0 0 1 .178 0a.29.29 0 0 1 .085.012.189.189 0 0 1 .066.033A.149.149 0 0 1 .37.1c.01.02.015.043.015.068 0 .04-.013.073-.039.101a.3.3 0 0 1-.11.072L.174.365a.36.36 0 0 0-.06.028.158.158 0 0 0-.038.031.109.109 0 0 0-.02.038A.164.164 0 0 0 .05.51c0 .018.004.034.011.05a.108.108 0 0 0 .03.037c.014.01.03.019.047.025A.187.187 0 0 0 .196.63.4.4 0 0 0 .34.603l.013.034A.436.436 0 0 1 .204.67.26.26 0 0 1 .123.656.193.193 0 0 1 .059.62.157.157 0 0 1 .02.57.145.145 0 0 1 .002.504c0-.04.012-.075.035-.103A.225.225 0 0 1 .133.338L.195.313A.53.53 0 0 0 .26.281.189.189 0 0 0 .305.248.106.106 0 0 0 .33.209.127.127 0 0 0 .327.112a.153.153 0 0 0-.04-.048C.265.047.231.039.183.039a.404.404 0 0 0-.094.01.319.319 0 0 0-.075.028L0 .043z"/></symbol><symbol id="w"><path d="M.286.194C.32.194.35.199.38.208a.49.49 0 0 1 .06-.087.464.464 0 0 1 .093-.08.295.295 0 0 1 .166-.04.44.44 0 0 1 .073.005L.766.042A.665.665 0 0 0 .708.038a.304.304 0 0 0-.17.049.376.376 0 0 0-.121.136c.05.026.085.059.107.098a.424.424 0 0 1 .034.342.316.316 0 0 1-.06.105.262.262 0 0 1-.206.095.283.283 0 0 1-.271-.2A.427.427 0 0 1 0 .526C0 .477.007.433.02.392A.321.321 0 0 1 .08.287.271.271 0 0 1 .286.194m.006.038a.222.222 0 0 0-.178.082.289.289 0 0 0-.049.096.442.442 0 0 0 0 .243.277.277 0 0 0 .05.09.216.216 0 0 0 .171.081A.215.215 0 0 0 .462.74a.284.284 0 0 0 .05-.096.419.419 0 0 0 0-.242.278.278 0 0 0-.05-.091.218.218 0 0 0-.17-.079z"/></symbol><symbol id="x"><path d="M.333.035H.044V.65H0V0h.333v.035z"/></symbol><use xlink:href="#v" transform="matrix(42 0 0 -42 363.55 252.41)" fill="#2e3d49"/><use xlink:href="#w" transform="matrix(42 0 0 -42 384.135 260.545)" fill="#2e3d49"/><use xlink:href="#x" transform="matrix(42 0 0 -42 415.236 252)" fill="#2e3d49"/><use xlink:href="#v" transform="matrix(42 0 0 -42 362.883 252.41)" fill="#2e3d49"/><use xlink:href="#w" transform="matrix(42 0 0 -42 383.467 260.545)" fill="#2e3d49"/><use xlink:href="#x" transform="matrix(42 0 0 -42 414.568 252)" fill="#2e3d49"/></g></g><clipPath id="y"><path transform="matrix(.75 0 0 .75 28.5 28.5)" d="M0 0h980v740H0V0z" fill-rule="evenodd"/></clipPath><g clip-path="url(#y)"><symbol id="z"><path d="M0 .333C0 .283.007.239.021.198A.283.283 0 0 1 .182.024.354.354 0 0 1 .391.008a.305.305 0 0 1 .065.02L.443.06A.347.347 0 0 0 .328.039a.33.33 0 0 0-.121.02.234.234 0 0 0-.14.156.423.423 0 0 0 0 .25C.079.5.097.53.119.554.142.579.17.598.2.61a.274.274 0 0 0 .17.011.412.412 0 0 0 .05-.015L.433.64a.343.343 0 0 1-.127.029.317.317 0 0 1-.13-.026.27.27 0 0 1-.095-.07.305.305 0 0 1-.06-.107A.416.416 0 0 1 0 .333z"/></symbol><symbol id="A"><path d="M.348.65H0V0h.358v.035H.045V.31h.292v.035H.045v.27h.303v.034z"/></symbol><symbol id="B"><path d="M.045 0v.279h.162L.356 0h.048L.25.286a.235.235 0 0 1 .1.062.172.172 0 0 1 .034.197A.16.16 0 0 1 .338.6a.197.197 0 0 1-.067.035.272.272 0 0 1-.083.013H0V0h.045m.138.614C.237.614.278.6.307.574A.147.147 0 0 0 .35.46.14.14 0 0 0 .31.362.172.172 0 0 0 .22.315H.046v.3h.138z"/></symbol><symbol id="C"><path d="M0 .614h.2V0h.044v.614h.2V.65H0V.614z"/></symbol><symbol id="D"><path d="M0 0h.044v.65H0V0z"/></symbol><symbol id="E"><path d="M.508 0h.047L.3.65H.255L0 0h.047l.07.183h.32L.507 0m-.23.599L.425.218H.13l.148.38z"/></symbol><symbol id="F"><path d="M.292.039A.222.222 0 0 0 .114.12a.289.289 0 0 0-.049.095.442.442 0 0 0 0 .243.277.277 0 0 0 .05.09.216.216 0 0 0 .171.081.215.215 0 0 0 .176-.084.284.284 0 0 0 .05-.095.419.419 0 0 0 0-.243.278.278 0 0 0-.05-.09.218.218 0 0 0-.17-.08M.286 0a.268.268 0 0 1 .21.092C.524.122.544.158.558.2a.425.425 0 0 1 0 .27.316.316 0 0 1-.059.105.262.262 0 0 1-.206.095.283.283 0 0 1-.271-.2A.427.427 0 0 1 0 .333C0 .283.007.239.02.198A.321.321 0 0 1 .08.093.271.271 0 0 1 .286 0z"/></symbol><symbol id="G"><path d="M0 0h.045v.606L.297.092h.038l.252.514V0h.045v.65H.564L.316.143.067.649H0V0z"/></symbol><symbol id="H"><path d="M.044 0v.269h.128c.032 0 .06.004.087.012A.173.173 0 0 1 .372.38a.205.205 0 0 1 .002.16.158.158 0 0 1-.043.059.19.19 0 0 1-.067.038.273.273 0 0 1-.086.013H0V0h.044m.128.614C.23.614.271.6.298.572.326.544.34.504.34.452A.16.16 0 0 0 .33.39.163.163 0 0 0 .286.333C.265.313.229.304.178.304H.044v.31h.128z"/></symbol><symbol id="I"><path d="M.41 0h.06v.65H.425V.054L.06.649H0V0h.045v.595L.409 0z"/></symbol><use xlink:href="#z" transform="matrix(12.75 0 0 -12.75 286.435 324.875)" fill="#4b7693"/><use xlink:href="#n" transform="matrix(12.75 0 0 -12.75 292.64 324.75)" fill="#4b7693"/><use xlink:href="#A" transform="matrix(12.75 0 0 -12.75 296.495 324.75)" fill="#4b7693"/><use xlink:href="#n" transform="matrix(12.75 0 0 -12.75 301.863 324.75)" fill="#4b7693"/><use xlink:href="#B" transform="matrix(12.75 0 0 -12.75 305.718 324.75)" fill="#4b7693"/><use xlink:href="#n" transform="matrix(12.75 0 0 -12.75 311.39 324.75)" fill="#4b7693"/><use xlink:href="#C" transform="matrix(12.75 0 0 -12.75 314.343 324.75)" fill="#4b7693"/><use xlink:href="#n" transform="matrix(12.75 0 0 -12.75 320.273 324.75)" fill="#4b7693"/><use xlink:href="#D" transform="matrix(12.75 0 0 -12.75 324.128 324.75)" fill="#4b7693"/><use xlink:href="#n" transform="matrix(12.75 0 0 -12.75 325.875 324.75)" fill="#4b7693"/><use xlink:href="#g" transform="matrix(12.75 0 0 -12.75 329.73 324.75)" fill="#4b7693"/><use xlink:href="#n" transform="matrix(12.75 0 0 -12.75 334.605 324.75)" fill="#4b7693"/><use xlink:href="#D" transform="matrix(12.75 0 0 -12.75 338.46 324.75)" fill="#4b7693"/><use xlink:href="#n" transform="matrix(12.75 0 0 -12.75 340.207 324.75)" fill="#4b7693"/><use xlink:href="#z" transform="matrix(12.75 0 0 -12.75 343.564 324.875)" fill="#4b7693"/><use xlink:href="#n" transform="matrix(12.75 0 0 -12.75 349.77 324.75)" fill="#4b7693"/><use xlink:href="#E" transform="matrix(12.75 0 0 -12.75 352.722 324.75)" fill="#4b7693"/><use xlink:href="#n" transform="matrix(12.75 0 0 -12.75 360.07 324.75)" fill="#4b7693"/><use xlink:href="#C" transform="matrix(12.75 0 0 -12.75 363.022 324.75)" fill="#4b7693"/><use xlink:href="#n" transform="matrix(12.75 0 0 -12.75 368.953 324.75)" fill="#4b7693"/><use xlink:href="#A" transform="matrix(12.75 0 0 -12.75 372.808 324.75)" fill="#4b7693"/><use xlink:href="#n" transform="matrix(12.75 0 0 -12.75 378.176 324.75)" fill="#4b7693"/><use xlink:href="#n" transform="matrix(12.75 0 0 -12.75 380.848 324.75)" fill="#4b7693"/><use xlink:href="#n" transform="matrix(12.75 0 0 -12.75 383.52 324.75)" fill="#4b7693"/><use xlink:href="#F" transform="matrix(12.75 0 0 -12.75 386.876 324.875)" fill="#4b7693"/><use xlink:href="#n" transform="matrix(12.75 0 0 -12.75 394.934 324.75)" fill="#4b7693"/><use xlink:href="#g" transform="matrix(12.75 0 0 -12.75 398.788 324.75)" fill="#4b7693"/><use xlink:href="#n" transform="matrix(12.75 0 0 -12.75 403.664 324.75)" fill="#4b7693"/><use xlink:href="#n" transform="matrix(12.75 0 0 -12.75 406.336 324.75)" fill="#4b7693"/><use xlink:href="#n" transform="matrix(12.75 0 0 -12.75 409.008 324.75)" fill="#4b7693"/><use xlink:href="#z" transform="matrix(12.75 0 0 -12.75 412.365 324.875)" fill="#4b7693"/><use xlink:href="#n" transform="matrix(12.75 0 0 -12.75 418.57 324.75)" fill="#4b7693"/><use xlink:href="#F" transform="matrix(12.75 0 0 -12.75 421.927 324.875)" fill="#4b7693"/><use xlink:href="#n" transform="matrix(12.75 0 0 -12.75 429.984 324.75)" fill="#4b7693"/><use xlink:href="#G" transform="matrix(12.75 0 0 -12.75 433.84 324.75)" fill="#4b7693"/><use xlink:href="#n" transform="matrix(12.75 0 0 -12.75 443.074 324.75)" fill="#4b7693"/><use xlink:href="#H" transform="matrix(12.75 0 0 -12.75 446.929 324.75)" fill="#4b7693"/><use xlink:href="#n" transform="matrix(12.75 0 0 -12.75 452.285 324.75)" fill="#4b7693"/><use xlink:href="#x" transform="matrix(12.75 0 0 -12.75 456.14 324.75)" fill="#4b7693"/><use xlink:href="#n" transform="matrix(12.75 0 0 -12.75 460.664 324.75)" fill="#4b7693"/><use xlink:href="#A" transform="matrix(12.75 0 0 -12.75 464.519 324.75)" fill="#4b7693"/><use xlink:href="#n" transform="matrix(12.75 0 0 -12.75 469.887 324.75)" fill="#4b7693"/><use xlink:href="#C" transform="matrix(12.75 0 0 -12.75 472.839 324.75)" fill="#4b7693"/><use xlink:href="#n" transform="matrix(12.75 0 0 -12.75 478.77 324.75)" fill="#4b7693"/><use xlink:href="#D" transform="matrix(12.75 0 0 -12.75 482.624 324.75)" fill="#4b7693"/><use xlink:href="#n" transform="matrix(12.75 0 0 -12.75 484.371 324.75)" fill="#4b7693"/><use xlink:href="#F" transform="matrix(12.75 0 0 -12.75 487.728 324.875)" fill="#4b7693"/><use xlink:href="#n" transform="matrix(12.75 0 0 -12.75 495.785 324.75)" fill="#4b7693"/><use xlink:href="#I" transform="matrix(12.75 0 0 -12.75 499.64 324.75)" fill="#4b7693"/><use xlink:href="#z" transform="matrix(12.75 0 0 -12.75 286.06 324.875)" fill="#4b7693"/><use xlink:href="#n" transform="matrix(12.75 0 0 -12.75 292.266 324.75)" fill="#4b7693"/><use xlink:href="#A" transform="matrix(12.75 0 0 -12.75 296.12 324.75)" fill="#4b7693"/><use xlink:href="#n" transform="matrix(12.75 0 0 -12.75 301.488 324.75)" fill="#4b7693"/><use xlink:href="#B" transform="matrix(12.75 0 0 -12.75 305.343 324.75)" fill="#4b7693"/><use xlink:href="#n" transform="matrix(12.75 0 0 -12.75 311.016 324.75)" fill="#4b7693"/><use xlink:href="#C" transform="matrix(12.75 0 0 -12.75 313.968 324.75)" fill="#4b7693"/><use xlink:href="#n" transform="matrix(12.75 0 0 -12.75 319.898 324.75)" fill="#4b7693"/><use xlink:href="#D" transform="matrix(12.75 0 0 -12.75 323.753 324.75)" fill="#4b7693"/><use xlink:href="#n" transform="matrix(12.75 0 0 -12.75 325.5 324.75)" fill="#4b7693"/><use xlink:href="#g" transform="matrix(12.75 0 0 -12.75 329.355 324.75)" fill="#4b7693"/><use xlink:href="#n" transform="matrix(12.75 0 0 -12.75 334.23 324.75)" fill="#4b7693"/><use xlink:href="#D" transform="matrix(12.75 0 0 -12.75 338.085 324.75)" fill="#4b7693"/><use xlink:href="#n" transform="matrix(12.75 0 0 -12.75 339.832 324.75)" fill="#4b7693"/><use xlink:href="#z" transform="matrix(12.75 0 0 -12.75 343.189 324.875)" fill="#4b7693"/><use xlink:href="#n" transform="matrix(12.75 0 0 -12.75 349.395 324.75)" fill="#4b7693"/><use xlink:href="#E" transform="matrix(12.75 0 0 -12.75 352.347 324.75)" fill="#4b7693"/><use xlink:href="#n" transform="matrix(12.75 0 0 -12.75 359.695 324.75)" fill="#4b7693"/><use xlink:href="#C" transform="matrix(12.75 0 0 -12.75 362.647 324.75)" fill="#4b7693"/><use xlink:href="#n" transform="matrix(12.75 0 0 -12.75 368.578 324.75)" fill="#4b7693"/><use xlink:href="#A" transform="matrix(12.75 0 0 -12.75 372.433 324.75)" fill="#4b7693"/><use xlink:href="#n" transform="matrix(12.75 0 0 -12.75 377.8 324.75)" fill="#4b7693"/><use xlink:href="#n" transform="matrix(12.75 0 0 -12.75 380.473 324.75)" fill="#4b7693"/><use xlink:href="#n" transform="matrix(12.75 0 0 -12.75 383.145 324.75)" fill="#4b7693"/><use xlink:href="#F" transform="matrix(12.75 0 0 -12.75 386.501 324.875)" fill="#4b7693"/><use xlink:href="#n" transform="matrix(12.75 0 0 -12.75 394.559 324.75)" fill="#4b7693"/><use xlink:href="#g" transform="matrix(12.75 0 0 -12.75 398.413 324.75)" fill="#4b7693"/><use xlink:href="#n" transform="matrix(12.75 0 0 -12.75 403.29 324.75)" fill="#4b7693"/><use xlink:href="#n" transform="matrix(12.75 0 0 -12.75 405.961 324.75)" fill="#4b7693"/><use xlink:href="#n" transform="matrix(12.75 0 0 -12.75 408.633 324.75)" fill="#4b7693"/><use xlink:href="#z" transform="matrix(12.75 0 0 -12.75 411.99 324.875)" fill="#4b7693"/><use xlink:href="#n" transform="matrix(12.75 0 0 -12.75 418.195 324.75)" fill="#4b7693"/><use xlink:href="#F" transform="matrix(12.75 0 0 -12.75 421.552 324.875)" fill="#4b7693"/><use xlink:href="#n" transform="matrix(12.75 0 0 -12.75 429.61 324.75)" fill="#4b7693"/><use xlink:href="#G" transform="matrix(12.75 0 0 -12.75 433.464 324.75)" fill="#4b7693"/><use xlink:href="#n" transform="matrix(12.75 0 0 -12.75 442.7 324.75)" fill="#4b7693"/><use xlink:href="#H" transform="matrix(12.75 0 0 -12.75 446.554 324.75)" fill="#4b7693"/><use xlink:href="#n" transform="matrix(12.75 0 0 -12.75 451.91 324.75)" fill="#4b7693"/><use xlink:href="#x" transform="matrix(12.75 0 0 -12.75 455.765 324.75)" fill="#4b7693"/><use xlink:href="#n" transform="matrix(12.75 0 0 -12.75 460.29 324.75)" fill="#4b7693"/><use xlink:href="#A" transform="matrix(12.75 0 0 -12.75 464.144 324.75)" fill="#4b7693"/><use xlink:href="#n" transform="matrix(12.75 0 0 -12.75 469.512 324.75)" fill="#4b7693"/><use xlink:href="#C" transform="matrix(12.75 0 0 -12.75 472.464 324.75)" fill="#4b7693"/><use xlink:href="#n" transform="matrix(12.75 0 0 -12.75 478.395 324.75)" fill="#4b7693"/><use xlink:href="#D" transform="matrix(12.75 0 0 -12.75 482.25 324.75)" fill="#4b7693"/><use xlink:href="#n" transform="matrix(12.75 0 0 -12.75 483.996 324.75)" fill="#4b7693"/><use xlink:href="#F" transform="matrix(12.75 0 0 -12.75 487.353 324.875)" fill="#4b7693"/><use xlink:href="#n" transform="matrix(12.75 0 0 -12.75 495.41 324.75)" fill="#4b7693"/><use xlink:href="#I" transform="matrix(12.75 0 0 -12.75 499.265 324.75)" fill="#4b7693"/><symbol id="J"><path d="M.684.5.536.048l-.15.447H.343L.193.048.043.5H0L.17 0h.047l.147.438L.512 0h.046L.73.5H.684z"/></symbol><symbol id="K"><path d="M.424.01v.722L.38.722V.48a.28.28 0 0 1-.061.026.433.433 0 0 1-.074.015A.25.25 0 0 1 .148.5a.234.234 0 0 1-.13-.136.359.359 0 0 1-.004-.212A.24.24 0 0 1 .057.07.195.195 0 0 1 .125.018.227.227 0 0 1 .262.005a.231.231 0 0 1 .087.042c.013.01.025.023.036.036L.393.01h.03M.38.12A.237.237 0 0 0 .317.064.21.21 0 0 0 .273.046.158.158 0 0 0 .226.038c-.06 0-.104.02-.134.06a.272.272 0 0 0-.045.166.27.27 0 0 0 .014.089C.07.379.083.403.1.42a.18.18 0 0 0 .137.06.269.269 0 0 0 .143-.04V.12z"/></symbol><symbol id="L"><path d="M.133.63.093.62.091.509 0 .503V.475h.09V.132c0-.045.012-.078.035-.1C.15.011.184 0 .23 0a.27.27 0 0 1 .078.013L.3.046A.314.314 0 0 0 .235.038C.198.038.173.045.157.06.142.078.134.105.134.143v.332H.29V.51H.133v.12z"/></symbol><symbol id="M"><path d="M.22 0a.21.21 0 0 1 .164.072c.02.023.034.05.045.083a.347.347 0 0 1 0 .213.24.24 0 0 1-.045.08.192.192 0 0 1-.07.052.226.226 0 0 1-.182 0 .206.206 0 0 1-.07-.054.244.244 0 0 1-.046-.083A.348.348 0 0 1 0 .255C0 .217.005.182.015.151A.244.244 0 0 1 .06.07.199.199 0 0 1 .13.018.22.22 0 0 1 .22 0m.006.038a.18.18 0 0 0-.075.015.164.164 0 0 0-.057.045.21.21 0 0 0-.035.07.355.355 0 0 0 0 .186c.008.026.02.049.034.068.016.02.034.034.055.044a.174.174 0 0 0 .146 0A.156.156 0 0 0 .35.42.199.199 0 0 0 .386.35a.334.334 0 0 0 0-.185.205.205 0 0 0-.034-.07.15.15 0 0 0-.126-.057z"/></symbol><use xlink:href="#E" transform="matrix(12 0 0 -12 366.639 348.75)"/><use xlink:href="#J" transform="matrix(12 0 0 -12 373.94 348.75)"/><use xlink:href="#l" transform="matrix(12 0 0 -12 383.648 348.867)"/><use xlink:href="#j" transform="matrix(12 0 0 -12 390.047 348.75)"/><use xlink:href="#K" transform="matrix(12 0 0 -12 393.598 348.867)"/><use xlink:href="#h" transform="matrix(12 0 0 -12 400.441 348.867)"/><use xlink:href="#K" transform="matrix(12 0 0 -12 406.465 348.867)"/><use xlink:href="#n" transform="matrix(12 0 0 -12 412.664 348.75)"/><use xlink:href="#L" transform="matrix(12 0 0 -12 415.447 348.871)"/><use xlink:href="#M" transform="matrix(12 0 0 -12 420.211 348.867)"/><use xlink:href="#E" transform="matrix(12 0 0 -12 366.264 348.75)"/><use xlink:href="#J" transform="matrix(12 0 0 -12 373.564 348.75)"/><use xlink:href="#l" transform="matrix(12 0 0 -12 383.273 348.867)"/><use xlink:href="#j" transform="matrix(12 0 0 -12 389.672 348.75)"/><use xlink:href="#K" transform="matrix(12 0 0 -12 393.223 348.867)"/><use xlink:href="#h" transform="matrix(12 0 0 -12 400.066 348.867)"/><use xlink:href="#K" transform="matrix(12 0 0 -12 406.09 348.867)"/><use xlink:href="#n" transform="matrix(12 0 0 -12 412.29 348.75)"/><use xlink:href="#L" transform="matrix(12 0 0 -12 415.072 348.871)"/><use xlink:href="#M" transform="matrix(12 0 0 -12 419.836 348.867)"/><symbol id="N"><path d="M.508.65.278.05.047.65H0L.255 0H.3l.255.65H.508z"/></symbol><symbol id="O"><path d="M0 .036A.208.208 0 0 1 .06.01.367.367 0 0 1 .15 0a.24.24 0 0 1 .069.01c.02.005.038.014.052.025A.119.119 0 0 1 .316.13c0 .034-.01.062-.031.083a.24.24 0 0 1-.088.056L.152.286A.314.314 0 0 0 .1.311a.123.123 0 0 0-.03.024.07.07 0 0 0-.015.026.114.114 0 0 0-.003.03c0 .027.008.046.022.058A.124.124 0 0 0 .16.482.324.324 0 0 0 .28.457l.013.034A.364.364 0 0 1 .166.52.203.203 0 0 1 .103.51a.152.152 0 0 1-.05-.028.116.116 0 0 1-.045-.094C.006.358.014.333.032.312A.182.182 0 0 1 .11.26L.156.242A.482.482 0 0 0 .209.216.16.16 0 0 0 .245.19.084.084 0 0 0 .27.126.084.084 0 0 0 .262.088.1.1 0 0 0 .23.055C.215.043.19.038.155.038a.347.347 0 0 0-.085.01.231.231 0 0 0-.055.02L0 .037z"/></symbol><symbol id="P"><path d="M.013.5V0h.044v.5H.013M0 .657C0 .647.003.64.01.633a.033.033 0 0 1 .022-.01c.01 0 .019.003.026.01a.04.04 0 0 1 .01.029c0 .01-.003.017-.01.023a.031.031 0 0 1-.021.01A.036.036 0 0 1 0 .657z"/></symbol><symbol id="Q"><path d="M0 .713V0h.044v.723L0 .713z"/></symbol><symbol id="R"><path d="M0 .5V0h.044v.39a.359.359 0 0 0 .123.07c.015.005.03.008.045.008.04 0 .068-.012.086-.037a.183.183 0 0 0 .027-.11V0H.37v.39a.41.41 0 0 0 .078.052A.27.27 0 0 0 .49.46c.016.005.03.008.046.008.039 0 .067-.012.086-.037A.183.183 0 0 0 .65.321V0h.044v.33a.29.29 0 0 1-.009.073.157.157 0 0 1-.027.057.12.12 0 0 1-.045.037.147.147 0 0 1-.065.013A.214.214 0 0 1 .45.484.445.445 0 0 1 .356.417a.138.138 0 0 1-.049.068.14.14 0 0 1-.083.025A.257.257 0 0 1 .12.482.361.361 0 0 1 .039.423L.031.5H0z"/></symbol><symbol id="S"><path d="M0 .693V0h.044v.224A.3.3 0 0 1 .122.191a.252.252 0 0 1 .152.01c.03.013.056.03.078.054.022.023.04.05.052.083A.339.339 0 0 1 .408.55a.23.23 0 0 1-.043.08.188.188 0 0 1-.068.054.214.214 0 0 1-.136.013.227.227 0 0 1-.088-.043A.189.189 0 0 1 .04.62L.031.693H0m.044-.11a.237.237 0 0 0 .105.075.167.167 0 0 0 .049.008C.228.666.253.66.275.649A.143.143 0 0 0 .33.604a.202.202 0 0 0 .034-.07.347.347 0 0 0 .012-.095.27.27 0 0 0-.015-.09.203.203 0 0 0-.04-.07.174.174 0 0 0-.135-.058.264.264 0 0 0-.143.041v.32z"/></symbol><use xlink:href="#N" transform="matrix(27.75 0 0 -27.75 281.86 397.5)" fill="#2e3d49"/><use xlink:href="#l" transform="matrix(27.75 0 0 -27.75 299.21 397.771)" fill="#2e3d49"/><use xlink:href="#O" transform="matrix(27.75 0 0 -27.75 312.713 397.771)" fill="#2e3d49"/><use xlink:href="#P" transform="matrix(27.75 0 0 -27.75 325.132 397.5)" fill="#2e3d49"/><use xlink:href="#Q" transform="matrix(27.75 0 0 -27.75 331.848 397.5)" fill="#2e3d49"/><use xlink:href="#h" transform="matrix(27.75 0 0 -27.75 337.127 397.771)" fill="#2e3d49"/><use xlink:href="#P" transform="matrix(27.75 0 0 -27.75 351.78 397.5)" fill="#2e3d49"/><use xlink:href="#M" transform="matrix(27.75 0 0 -27.75 357.412 397.771)" fill="#2e3d49"/><use xlink:href="#O" transform="matrix(27.75 0 0 -27.75 372.572 397.771)" fill="#2e3d49"/><use xlink:href="#n" transform="matrix(27.75 0 0 -27.75 382.77 397.5)" fill="#2e3d49"/><use xlink:href="#C" transform="matrix(27.75 0 0 -27.75 389.204 397.5)" fill="#2e3d49"/><use xlink:href="#O" transform="matrix(27.75 0 0 -27.75 403.393 397.771)" fill="#2e3d49"/><use xlink:href="#M" transform="matrix(27.75 0 0 -27.75 415.08 397.771)" fill="#2e3d49"/><use xlink:href="#k" transform="matrix(27.75 0 0 -27.75 431.261 397.771)" fill="#2e3d49"/><use xlink:href="#R" transform="matrix(27.75 0 0 -27.75 446.774 397.5)" fill="#2e3d49"/><use xlink:href="#S" transform="matrix(27.75 0 0 -27.75 470.973 402.866)" fill="#2e3d49"/><use xlink:href="#j" transform="matrix(27.75 0 0 -27.75 486.793 397.5)" fill="#2e3d49"/><use xlink:href="#P" transform="matrix(27.75 0 0 -27.75 495.746 397.5)" fill="#2e3d49"/><use xlink:href="#O" transform="matrix(27.75 0 0 -27.75 501.174 397.771)" fill="#2e3d49"/><use xlink:href="#N" transform="matrix(27.75 0 0 -27.75 281.42 397.5)" fill="#2e3d49"/><use xlink:href="#l" transform="matrix(27.75 0 0 -27.75 298.771 397.771)" fill="#2e3d49"/><use xlink:href="#O" transform="matrix(27.75 0 0 -27.75 312.274 397.771)" fill="#2e3d49"/><use xlink:href="#P" transform="matrix(27.75 0 0 -27.75 324.693 397.5)" fill="#2e3d49"/><use xlink:href="#Q" transform="matrix(27.75 0 0 -27.75 331.408 397.5)" fill="#2e3d49"/><use xlink:href="#h" transform="matrix(27.75 0 0 -27.75 336.688 397.771)" fill="#2e3d49"/><use xlink:href="#P" transform="matrix(27.75 0 0 -27.75 351.341 397.5)" fill="#2e3d49"/><use xlink:href="#M" transform="matrix(27.75 0 0 -27.75 356.973 397.771)" fill="#2e3d49"/><use xlink:href="#O" transform="matrix(27.75 0 0 -27.75 372.133 397.771)" fill="#2e3d49"/><use xlink:href="#n" transform="matrix(27.75 0 0 -27.75 382.33 397.5)" fill="#2e3d49"/><use xlink:href="#C" transform="matrix(27.75 0 0 -27.75 388.764 397.5)" fill="#2e3d49"/><use xlink:href="#O" transform="matrix(27.75 0 0 -27.75 402.953 397.771)" fill="#2e3d49"/><use xlink:href="#M" transform="matrix(27.75 0 0 -27.75 414.64 397.771)" fill="#2e3d49"/><use xlink:href="#k" transform="matrix(27.75 0 0 -27.75 430.822 397.771)" fill="#2e3d49"/><use xlink:href="#R" transform="matrix(27.75 0 0 -27.75 446.334 397.5)" fill="#2e3d49"/><use xlink:href="#S" transform="matrix(27.75 0 0 -27.75 470.533 402.866)" fill="#2e3d49"/><use xlink:href="#j" transform="matrix(27.75 0 0 -27.75 486.354 397.5)" fill="#2e3d49"/><use xlink:href="#P" transform="matrix(27.75 0 0 -27.75 495.306 397.5)" fill="#2e3d49"/><use xlink:href="#O" transform="matrix(27.75 0 0 -27.75 500.735 397.771)" fill="#2e3d49"/><symbol id="T"><path d="M.045.66H0V.255C0 .215.005.179.015.147A.282.282 0 0 1 .075.05C.105.017.155 0 .227 0c.036 0 .069.006.097.017a.197.197 0 0 1 .074.051.23.23 0 0 1 .046.082c.011.032.017.069.017.11v.4H.416V.251A.234.234 0 0 0 .354.08C.331.053.29.04.234.04a.173.173 0 0 0-.14.057C.062.134.045.19.044.263V.66z"/></symbol><symbol id="U"><path d="M.047.264c0 .033.004.063.014.09C.07.38.083.403.1.422a.17.17 0 0 0 .062.044.212.212 0 0 0 .133.01.34.34 0 0 0 .04-.011L.35.497A.271.271 0 0 1 .246.52.264.264 0 0 1 .145.5.228.228 0 0 1 .018.363.312.312 0 0 1 0 .255C0 .217.006.182.017.151A.215.215 0 0 1 .142.018a.298.298 0 0 1 .22.007L.346.057a.251.251 0 0 0-.102-.02.226.226 0 0 0-.086.016.167.167 0 0 0-.063.045.197.197 0 0 0-.038.07.319.319 0 0 0-.012.096z"/></symbol><symbol id="V"><path d="M0 .713V0h.044v.39A.346.346 0 0 0 .17.46a.172.172 0 0 0 .047.008c.041 0 .07-.012.09-.037.019-.024.028-.06.028-.11V0H.38v.33A.276.276 0 0 1 .37.402.159.159 0 0 1 .342.46a.122.122 0 0 1-.047.037.156.156 0 0 1-.066.013.241.241 0 0 1-.102-.027.396.396 0 0 1-.083-.054v.294L0 .713z"/></symbol><symbol id="W"><path d="M0 .5V0h.044v.39A.346.346 0 0 0 .17.46a.172.172 0 0 0 .047.008c.041 0 .07-.012.09-.037.019-.024.028-.06.028-.11V0H.38v.33A.276.276 0 0 1 .37.402.159.159 0 0 1 .342.46a.122.122 0 0 1-.047.037.156.156 0 0 1-.066.013.261.261 0 0 1-.105-.028.356.356 0 0 1-.085-.058L.031.5H0z"/></symbol><symbol id="X"><path d="M.133.56c0 .04.009.072.027.093.019.021.048.032.088.032a.216.216 0 0 0 .04-.004L.314.676.322.71a.211.211 0 0 1-.03.009A.186.186 0 0 1 .183.71a.148.148 0 0 1-.05-.033A.147.147 0 0 1 .1.628.168.168 0 0 1 .09.565V.498L0 .493V.465h.09V0h.044v.465h.129V.5h-.13v.06z"/></symbol><use xlink:href="#T" transform="matrix(8.25 0 0 -8.25 447.624 501.08)" fill="#4b7693"/><use xlink:href="#K" transform="matrix(8.25 0 0 -8.25 452.494 501.08)" fill="#4b7693"/><use xlink:href="#l" transform="matrix(8.25 0 0 -8.25 457.153 501.08)" fill="#4b7693"/><use xlink:href="#U" transform="matrix(8.25 0 0 -8.25 461.224 501.08)" fill="#4b7693"/><use xlink:href="#P" transform="matrix(8.25 0 0 -8.25 465.157 501)" fill="#4b7693"/><use xlink:href="#L" transform="matrix(8.25 0 0 -8.25 466.564 501.083)" fill="#4b7693"/><use xlink:href="#m" transform="matrix(8.25 0 0 -8.25 469.536 502.678)" fill="#4b7693"/><use xlink:href="#n" transform="matrix(8.25 0 0 -8.25 473.508 501)" fill="#4b7693"/><use xlink:href="#V" transform="matrix(8.25 0 0 -8.25 475.996 501)" fill="#4b7693"/><use xlink:href="#l" transform="matrix(8.25 0 0 -8.25 480.227 501.08)" fill="#4b7693"/><use xlink:href="#O" transform="matrix(8.25 0 0 -8.25 484.238 501.08)" fill="#4b7693"/><use xlink:href="#n" transform="matrix(8.25 0 0 -8.25 487.266 501)" fill="#4b7693"/><use xlink:href="#U" transform="matrix(8.25 0 0 -8.25 489.431 501.08)" fill="#4b7693"/><use xlink:href="#M" transform="matrix(8.25 0 0 -8.25 493.146 501.08)" fill="#4b7693"/><use xlink:href="#W" transform="matrix(8.25 0 0 -8.25 498.027 501)" fill="#4b7693"/><use xlink:href="#X" transform="matrix(8.25 0 0 -8.25 502.037 501)" fill="#4b7693"/><use xlink:href="#P" transform="matrix(8.25 0 0 -8.25 505.13 501)" fill="#4b7693"/><use xlink:href="#j" transform="matrix(8.25 0 0 -8.25 507.12 501)" fill="#4b7693"/><use xlink:href="#R" transform="matrix(8.25 0 0 -8.25 509.886 501)" fill="#4b7693"/><use xlink:href="#h" transform="matrix(8.25 0 0 -8.25 516.748 501.08)" fill="#4b7693"/><use xlink:href="#K" transform="matrix(8.25 0 0 -8.25 520.885 501.08)" fill="#4b7693"/><use xlink:href="#n" transform="matrix(8.25 0 0 -8.25 525.14 501)" fill="#4b7693"/><use xlink:href="#L" transform="matrix(8.25 0 0 -8.25 527.045 501.083)" fill="#4b7693"/><use xlink:href="#V" transform="matrix(8.25 0 0 -8.25 530.64 501)" fill="#4b7693"/><use xlink:href="#h" transform="matrix(8.25 0 0 -8.25 534.912 501.08)" fill="#4b7693"/><use xlink:href="#n" transform="matrix(8.25 0 0 -8.25 538.605 501)" fill="#4b7693"/><use xlink:href="#S" transform="matrix(8.25 0 0 -8.25 541.093 502.595)" fill="#4b7693"/><use xlink:href="#l" transform="matrix(8.25 0 0 -8.25 545.43 501.08)" fill="#4b7693"/><use xlink:href="#j" transform="matrix(8.25 0 0 -8.25 549.824 501)" fill="#4b7693"/><use xlink:href="#L" transform="matrix(8.25 0 0 -8.25 552.005 501.083)" fill="#4b7693"/><use xlink:href="#P" transform="matrix(8.25 0 0 -8.25 555.497 501)" fill="#4b7693"/><use xlink:href="#U" transform="matrix(8.25 0 0 -8.25 557.166 501.08)" fill="#4b7693"/><use xlink:href="#P" transform="matrix(8.25 0 0 -8.25 561.098 501)" fill="#4b7693"/><use xlink:href="#S" transform="matrix(8.25 0 0 -8.25 563.09 502.595)" fill="#4b7693"/><use xlink:href="#l" transform="matrix(8.25 0 0 -8.25 567.426 501.08)" fill="#4b7693"/><use xlink:href="#L" transform="matrix(8.25 0 0 -8.25 571.236 501.083)" fill="#4b7693"/><use xlink:href="#P" transform="matrix(8.25 0 0 -8.25 574.727 501)" fill="#4b7693"/><use xlink:href="#M" transform="matrix(8.25 0 0 -8.25 576.396 501.08)" fill="#4b7693"/><use xlink:href="#W" transform="matrix(8.25 0 0 -8.25 581.277 501)" fill="#4b7693"/><use xlink:href="#n" transform="matrix(8.25 0 0 -8.25 585.105 501)" fill="#4b7693"/><use xlink:href="#M" transform="matrix(8.25 0 0 -8.25 587.271 501.08)" fill="#4b7693"/><use xlink:href="#X" transform="matrix(8.25 0 0 -8.25 591.568 501)" fill="#4b7693"/><use xlink:href="#n" transform="matrix(8.25 0 0 -8.25 594 501)" fill="#4b7693"/><use xlink:href="#L" transform="matrix(8.25 0 0 -8.25 595.904 501.083)" fill="#4b7693"/><use xlink:href="#V" transform="matrix(8.25 0 0 -8.25 599.5 501)" fill="#4b7693"/><use xlink:href="#P" transform="matrix(8.25 0 0 -8.25 603.989 501)" fill="#4b7693"/><use xlink:href="#O" transform="matrix(8.25 0 0 -8.25 605.598 501.08)" fill="#4b7693"/><use xlink:href="#T" transform="matrix(8.25 0 0 -8.25 447.25 501.08)" fill="#4b7693"/><use xlink:href="#K" transform="matrix(8.25 0 0 -8.25 452.119 501.08)" fill="#4b7693"/><use xlink:href="#l" transform="matrix(8.25 0 0 -8.25 456.778 501.08)" fill="#4b7693"/><use xlink:href="#U" transform="matrix(8.25 0 0 -8.25 460.85 501.08)" fill="#4b7693"/><use xlink:href="#P" transform="matrix(8.25 0 0 -8.25 464.782 501)" fill="#4b7693"/><use xlink:href="#L" transform="matrix(8.25 0 0 -8.25 466.19 501.083)" fill="#4b7693"/><use xlink:href="#m" transform="matrix(8.25 0 0 -8.25 469.16 502.678)" fill="#4b7693"/><use xlink:href="#n" transform="matrix(8.25 0 0 -8.25 473.133 501)" fill="#4b7693"/><use xlink:href="#V" transform="matrix(8.25 0 0 -8.25 475.62 501)" fill="#4b7693"/><use xlink:href="#l" transform="matrix(8.25 0 0 -8.25 479.852 501.08)" fill="#4b7693"/><use xlink:href="#O" transform="matrix(8.25 0 0 -8.25 483.863 501.08)" fill="#4b7693"/><use xlink:href="#n" transform="matrix(8.25 0 0 -8.25 486.89 501)" fill="#4b7693"/><use xlink:href="#U" transform="matrix(8.25 0 0 -8.25 489.056 501.08)" fill="#4b7693"/><use xlink:href="#M" transform="matrix(8.25 0 0 -8.25 492.771 501.08)" fill="#4b7693"/><use xlink:href="#W" transform="matrix(8.25 0 0 -8.25 497.652 501)" fill="#4b7693"/><use xlink:href="#X" transform="matrix(8.25 0 0 -8.25 501.662 501)" fill="#4b7693"/><use xlink:href="#P" transform="matrix(8.25 0 0 -8.25 504.754 501)" fill="#4b7693"/><use xlink:href="#j" transform="matrix(8.25 0 0 -8.25 506.746 501)" fill="#4b7693"/><use xlink:href="#R" transform="matrix(8.25 0 0 -8.25 509.511 501)" fill="#4b7693"/><use xlink:href="#h" transform="matrix(8.25 0 0 -8.25 516.373 501.08)" fill="#4b7693"/><use xlink:href="#K" transform="matrix(8.25 0 0 -8.25 520.51 501.08)" fill="#4b7693"/><use xlink:href="#n" transform="matrix(8.25 0 0 -8.25 524.766 501)" fill="#4b7693"/><use xlink:href="#L" transform="matrix(8.25 0 0 -8.25 526.67 501.083)" fill="#4b7693"/><use xlink:href="#V" transform="matrix(8.25 0 0 -8.25 530.265 501)" fill="#4b7693"/><use xlink:href="#h" transform="matrix(8.25 0 0 -8.25 534.537 501.08)" fill="#4b7693"/><use xlink:href="#n" transform="matrix(8.25 0 0 -8.25 538.23 501)" fill="#4b7693"/><use xlink:href="#S" transform="matrix(8.25 0 0 -8.25 540.718 502.595)" fill="#4b7693"/><use xlink:href="#l" transform="matrix(8.25 0 0 -8.25 545.055 501.08)" fill="#4b7693"/><use xlink:href="#j" transform="matrix(8.25 0 0 -8.25 549.449 501)" fill="#4b7693"/><use xlink:href="#L" transform="matrix(8.25 0 0 -8.25 551.63 501.083)" fill="#4b7693"/><use xlink:href="#P" transform="matrix(8.25 0 0 -8.25 555.122 501)" fill="#4b7693"/><use xlink:href="#U" transform="matrix(8.25 0 0 -8.25 556.79 501.08)" fill="#4b7693"/><use xlink:href="#P" transform="matrix(8.25 0 0 -8.25 560.723 501)" fill="#4b7693"/><use xlink:href="#S" transform="matrix(8.25 0 0 -8.25 562.715 502.595)" fill="#4b7693"/><use xlink:href="#l" transform="matrix(8.25 0 0 -8.25 567.051 501.08)" fill="#4b7693"/><use xlink:href="#L" transform="matrix(8.25 0 0 -8.25 570.861 501.083)" fill="#4b7693"/><use xlink:href="#P" transform="matrix(8.25 0 0 -8.25 574.352 501)" fill="#4b7693"/><use xlink:href="#M" transform="matrix(8.25 0 0 -8.25 576.021 501.08)" fill="#4b7693"/><use xlink:href="#W" transform="matrix(8.25 0 0 -8.25 580.902 501)" fill="#4b7693"/><use xlink:href="#n" transform="matrix(8.25 0 0 -8.25 584.73 501)" fill="#4b7693"/><use xlink:href="#M" transform="matrix(8.25 0 0 -8.25 586.896 501.08)" fill="#4b7693"/><use xlink:href="#X" transform="matrix(8.25 0 0 -8.25 591.193 501)" fill="#4b7693"/><use xlink:href="#n" transform="matrix(8.25 0 0 -8.25 593.625 501)" fill="#4b7693"/><use xlink:href="#L" transform="matrix(8.25 0 0 -8.25 595.529 501.083)" fill="#4b7693"/><use xlink:href="#V" transform="matrix(8.25 0 0 -8.25 599.125 501)" fill="#4b7693"/><use xlink:href="#P" transform="matrix(8.25 0 0 -8.25 603.614 501)" fill="#4b7693"/><use xlink:href="#O" transform="matrix(8.25 0 0 -8.25 605.223 501.08)" fill="#4b7693"/><symbol id="Y"><path d="M.408.5.227.049.045.5H0L.205 0h.044l.205.5H.408z"/></symbol><use xlink:href="#P" transform="matrix(8.25 0 0 -8.25 447.66 512.25)" fill="#4b7693"/><use xlink:href="#W" transform="matrix(8.25 0 0 -8.25 449.652 512.25)" fill="#4b7693"/><use xlink:href="#K" transform="matrix(8.25 0 0 -8.25 453.924 512.33)" fill="#4b7693"/><use xlink:href="#P" transform="matrix(8.25 0 0 -8.25 458.84 512.25)" fill="#4b7693"/><use xlink:href="#Y" transform="matrix(8.25 0 0 -8.25 460.248 512.25)" fill="#4b7693"/><use xlink:href="#P" transform="matrix(8.25 0 0 -8.25 464.829 512.25)" fill="#4b7693"/><use xlink:href="#K" transform="matrix(8.25 0 0 -8.25 466.498 512.33)" fill="#4b7693"/><use xlink:href="#k" transform="matrix(8.25 0 0 -8.25 471.44 512.33)" fill="#4b7693"/><use xlink:href="#l" transform="matrix(8.25 0 0 -8.25 475.692 512.33)" fill="#4b7693"/><use xlink:href="#Q" transform="matrix(8.25 0 0 -8.25 480.086 512.25)" fill="#4b7693"/><use xlink:href="#n" transform="matrix(8.25 0 0 -8.25 481.207 512.25)" fill="#4b7693"/><use xlink:href="#P" transform="matrix(8.25 0 0 -8.25 483.59 512.25)" fill="#4b7693"/><use xlink:href="#W" transform="matrix(8.25 0 0 -8.25 485.582 512.25)" fill="#4b7693"/><use xlink:href="#n" transform="matrix(8.25 0 0 -8.25 489.41 512.25)" fill="#4b7693"/><use xlink:href="#L" transform="matrix(8.25 0 0 -8.25 491.314 512.333)" fill="#4b7693"/><use xlink:href="#V" transform="matrix(8.25 0 0 -8.25 494.91 512.25)" fill="#4b7693"/><use xlink:href="#P" transform="matrix(8.25 0 0 -8.25 499.399 512.25)" fill="#4b7693"/><use xlink:href="#O" transform="matrix(8.25 0 0 -8.25 501.008 512.33)" fill="#4b7693"/><use xlink:href="#n" transform="matrix(8.25 0 0 -8.25 504.035 512.25)" fill="#4b7693"/><use xlink:href="#P" transform="matrix(8.25 0 0 -8.25 447.286 512.25)" fill="#4b7693"/><use xlink:href="#W" transform="matrix(8.25 0 0 -8.25 449.277 512.25)" fill="#4b7693"/><use xlink:href="#K" transform="matrix(8.25 0 0 -8.25 453.549 512.33)" fill="#4b7693"/><use xlink:href="#P" transform="matrix(8.25 0 0 -8.25 458.465 512.25)" fill="#4b7693"/><use xlink:href="#Y" transform="matrix(8.25 0 0 -8.25 459.873 512.25)" fill="#4b7693"/><use xlink:href="#P" transform="matrix(8.25 0 0 -8.25 464.454 512.25)" fill="#4b7693"/><use xlink:href="#K" transform="matrix(8.25 0 0 -8.25 466.123 512.33)" fill="#4b7693"/><use xlink:href="#k" transform="matrix(8.25 0 0 -8.25 471.065 512.33)" fill="#4b7693"/><use xlink:href="#l" transform="matrix(8.25 0 0 -8.25 475.317 512.33)" fill="#4b7693"/><use xlink:href="#Q" transform="matrix(8.25 0 0 -8.25 479.71 512.25)" fill="#4b7693"/><use xlink:href="#n" transform="matrix(8.25 0 0 -8.25 480.832 512.25)" fill="#4b7693"/><use xlink:href="#P" transform="matrix(8.25 0 0 -8.25 483.215 512.25)" fill="#4b7693"/><use xlink:href="#W" transform="matrix(8.25 0 0 -8.25 485.207 512.25)" fill="#4b7693"/><use xlink:href="#n" transform="matrix(8.25 0 0 -8.25 489.035 512.25)" fill="#4b7693"/><use xlink:href="#L" transform="matrix(8.25 0 0 -8.25 490.94 512.333)" fill="#4b7693"/><use xlink:href="#V" transform="matrix(8.25 0 0 -8.25 494.535 512.25)" fill="#4b7693"/><use xlink:href="#P" transform="matrix(8.25 0 0 -8.25 499.024 512.25)" fill="#4b7693"/><use xlink:href="#O" transform="matrix(8.25 0 0 -8.25 500.633 512.33)" fill="#4b7693"/><use xlink:href="#n" transform="matrix(8.25 0 0 -8.25 503.66 512.25)" fill="#4b7693"/><symbol id="Z"><path d="M.176.376a.176.176 0 0 1 .14.287.129.129 0 0 0 .047.018c.019.003.039.004.059.001V.72A.185.185 0 0 1 .336.71.097.097 0 0 1 .294.684a.183.183 0 0 1-.11.039A.183.183 0 0 1 .057.67a.173.173 0 0 1-.05-.123c0-.04.01-.074.029-.102A.154.154 0 0 1 .113.387.24.24 0 0 1 .065.345.069.069 0 0 1 .052.302c0-.017.004-.03.01-.038a.103.103 0 0 1 .017-.02.07.07 0 0 1 .017-.009.19.19 0 0 1-.067-.048.139.139 0 0 1-.022-.033.1.1 0 0 1 .007-.088.108.108 0 0 1 .04-.036.208.208 0 0 1 .061-.023.4.4 0 0 1 .17.003c.027.007.05.017.069.03a.14.14 0 0 1 .043.044.11.11 0 0 1 .017.057.103.103 0 0 1-.047.086A.148.148 0 0 1 .32.25a.196.196 0 0 1-.053.007H.153C.133.256.118.261.108.27a.049.049 0 0 0-.015.038.06.06 0 0 0 .016.038C.12.358.133.369.148.378A.135.135 0 0 1 .176.376M.18.412a.124.124 0 0 0-.121.082.17.17 0 0 0 0 .111.133.133 0 0 0 .215.042A.121.121 0 0 0 .3.603.163.163 0 0 0 .31.545.133.133 0 0 0 .23.422a.134.134 0 0 0-.05-.01M.205.038a.264.264 0 0 0-.12.022C.057.074.043.096.043.125c0 .01.003.021.007.03.004.01.01.019.017.027a.145.145 0 0 0 .056.036h.135A.136.136 0 0 0 .34.197C.36.183.37.162.37.134A.07.07 0 0 0 .356.095a.097.097 0 0 0-.033-.03.18.18 0 0 0-.052-.02.274.274 0 0 0-.065-.007z"/></symbol><symbol id="aa"><path d="M0 .034C0 .024.003.016.01.01A.033.033 0 0 1 .031 0c.01 0 .019.003.026.01a.04.04 0 0 1 .01.029c0 .009-.003.017-.01.023a.031.031 0 0 1-.021.01A.036.036 0 0 1 0 .034z"/></symbol><use xlink:href="#S" transform="matrix(8.25 0 0 -8.25 506.265 513.845)" fill="#4b7693"/><use xlink:href="#j" transform="matrix(8.25 0 0 -8.25 510.965 512.25)" fill="#4b7693"/><use xlink:href="#M" transform="matrix(8.25 0 0 -8.25 513.408 512.33)" fill="#4b7693"/><use xlink:href="#Z" transform="matrix(8.25 0 0 -8.25 517.886 514.006)" fill="#4b7693"/><use xlink:href="#j" transform="matrix(8.25 0 0 -8.25 522.426 512.25)" fill="#4b7693"/><use xlink:href="#l" transform="matrix(8.25 0 0 -8.25 524.829 512.33)" fill="#4b7693"/><use xlink:href="#R" transform="matrix(8.25 0 0 -8.25 529.222 512.25)" fill="#4b7693"/><use xlink:href="#aa" transform="matrix(8.25 0 0 -8.25 536.164 512.33)" fill="#4b7693"/><use xlink:href="#n" transform="matrix(8.25 0 0 -8.25 537.246 512.25)" fill="#4b7693"/><use xlink:href="#z" transform="matrix(8.25 0 0 -8.25 539.412 512.33)" fill="#4b7693"/><use xlink:href="#M" transform="matrix(8.25 0 0 -8.25 543.865 512.33)" fill="#4b7693"/><use xlink:href="#W" transform="matrix(8.25 0 0 -8.25 548.746 512.25)" fill="#4b7693"/><use xlink:href="#X" transform="matrix(8.25 0 0 -8.25 552.755 512.25)" fill="#4b7693"/><use xlink:href="#P" transform="matrix(8.25 0 0 -8.25 555.848 512.25)" fill="#4b7693"/><use xlink:href="#j" transform="matrix(8.25 0 0 -8.25 557.84 512.25)" fill="#4b7693"/><use xlink:href="#R" transform="matrix(8.25 0 0 -8.25 560.605 512.25)" fill="#4b7693"/><use xlink:href="#n" transform="matrix(8.25 0 0 -8.25 567.023 512.25)" fill="#4b7693"/><use xlink:href="#S" transform="matrix(8.25 0 0 -8.25 569.511 513.845)" fill="#4b7693"/><use xlink:href="#j" transform="matrix(8.25 0 0 -8.25 574.21 512.25)" fill="#4b7693"/><use xlink:href="#M" transform="matrix(8.25 0 0 -8.25 576.654 512.33)" fill="#4b7693"/><use xlink:href="#Z" transform="matrix(8.25 0 0 -8.25 581.132 514.006)" fill="#4b7693"/><use xlink:href="#j" transform="matrix(8.25 0 0 -8.25 585.672 512.25)" fill="#4b7693"/><use xlink:href="#l" transform="matrix(8.25 0 0 -8.25 588.075 512.33)" fill="#4b7693"/><use xlink:href="#R" transform="matrix(8.25 0 0 -8.25 592.468 512.25)" fill="#4b7693"/><use xlink:href="#S" transform="matrix(8.25 0 0 -8.25 505.89 513.845)" fill="#4b7693"/><use xlink:href="#j" transform="matrix(8.25 0 0 -8.25 510.59 512.25)" fill="#4b7693"/><use xlink:href="#M" transform="matrix(8.25 0 0 -8.25 513.033 512.33)" fill="#4b7693"/><use xlink:href="#Z" transform="matrix(8.25 0 0 -8.25 517.511 514.006)" fill="#4b7693"/><use xlink:href="#j" transform="matrix(8.25 0 0 -8.25 522.05 512.25)" fill="#4b7693"/><use xlink:href="#l" transform="matrix(8.25 0 0 -8.25 524.454 512.33)" fill="#4b7693"/><use xlink:href="#R" transform="matrix(8.25 0 0 -8.25 528.847 512.25)" fill="#4b7693"/><use xlink:href="#aa" transform="matrix(8.25 0 0 -8.25 535.79 512.33)" fill="#4b7693"/><use xlink:href="#n" transform="matrix(8.25 0 0 -8.25 536.871 512.25)" fill="#4b7693"/><use xlink:href="#z" transform="matrix(8.25 0 0 -8.25 539.037 512.33)" fill="#4b7693"/><use xlink:href="#M" transform="matrix(8.25 0 0 -8.25 543.49 512.33)" fill="#4b7693"/><use xlink:href="#W" transform="matrix(8.25 0 0 -8.25 548.37 512.25)" fill="#4b7693"/><use xlink:href="#X" transform="matrix(8.25 0 0 -8.25 552.38 512.25)" fill="#4b7693"/><use xlink:href="#P" transform="matrix(8.25 0 0 -8.25 555.473 512.25)" fill="#4b7693"/><use xlink:href="#j" transform="matrix(8.25 0 0 -8.25 557.465 512.25)" fill="#4b7693"/><use xlink:href="#R" transform="matrix(8.25 0 0 -8.25 560.23 512.25)" fill="#4b7693"/><use xlink:href="#n" transform="matrix(8.25 0 0 -8.25 566.648 512.25)" fill="#4b7693"/><use xlink:href="#S" transform="matrix(8.25 0 0 -8.25 569.136 513.845)" fill="#4b7693"/><use xlink:href="#j" transform="matrix(8.25 0 0 -8.25 573.836 512.25)" fill="#4b7693"/><use xlink:href="#M" transform="matrix(8.25 0 0 -8.25 576.28 512.33)" fill="#4b7693"/><use xlink:href="#Z" transform="matrix(8.25 0 0 -8.25 580.757 514.006)" fill="#4b7693"/><use xlink:href="#j" transform="matrix(8.25 0 0 -8.25 585.297 512.25)" fill="#4b7693"/><use xlink:href="#l" transform="matrix(8.25 0 0 -8.25 587.7 512.33)" fill="#4b7693"/><use xlink:href="#R" transform="matrix(8.25 0 0 -8.25 592.093 512.25)" fill="#4b7693"/><symbol id="ab"><path d="M.378.896 0 0h.044l.378.896H.378z"/></symbol><symbol id="ac"><path d="M.153 0C.198 0 .24.007.278.022a.284.284 0 0 1 .164.169.383.383 0 0 1 .003.263.272.272 0 0 1-.158.17.344.344 0 0 1-.134.025H0V0h.153M.044.035v.58h.11A.29.29 0 0 0 .267.591.212.212 0 0 0 .35.532.259.259 0 0 0 .4.438a.421.421 0 0 0 .017-.12A.324.324 0 0 0 .396.2.247.247 0 0 0 .255.055a.284.284 0 0 0-.107-.02H.044z"/></symbol><symbol id="ad"><path d="m.306.33.226.32H.48L.28.357.077.65H.025L.251.331 0 0h.053L.28.3.504 0h.053l-.25.33z"/></symbol><symbol id="ae"><path d="M.148.038a.34.34 0 0 0-.097.014L.043.018A.143.143 0 0 1 .08.005.292.292 0 0 1 .142 0C.197 0 .243.01.28.03.317.05.346.08.367.115a.379.379 0 0 1 .045.122C.42.28.425.329.425.379A.455.455 0 0 1 .41.5a.267.267 0 0 1-.043.091.194.194 0 0 1-.155.078.25.25 0 0 1-.087-.015.182.182 0 0 1-.11-.104A.2.2 0 0 1 0 .472.179.179 0 0 1 .124.29.249.249 0 0 1 .26.284a.248.248 0 0 1 .089.04C.36.332.37.34.378.349A.592.592 0 0 0 .365.23a.32.32 0 0 0-.038-.1.187.187 0 0 0-.07-.068.22.22 0 0 0-.109-.025M.205.63C.234.63.259.624.28.613A.14.14 0 0 0 .334.564.226.226 0 0 0 .367.49a.44.44 0 0 0 .01-.1.224.224 0 0 0-.065-.048.215.215 0 0 0-.104-.025.223.223 0 0 0-.062.008.147.147 0 0 0-.052.028.13.13 0 0 0-.035.05.217.217 0 0 0-.001.142A.13.13 0 0 0 .14.62c.02.007.04.01.064.01z"/></symbol><symbol id="af"><path d="M.475.332H.293V.297H.43V.063A.317.317 0 0 0 .196.06a.219.219 0 0 0-.081.06.279.279 0 0 0-.05.096.435.435 0 0 0 .002.25C.08.5.098.53.121.554.144.579.172.598.205.61a.306.306 0 0 0 .183.01A.533.533 0 0 0 .44.606L.455.64a.841.841 0 0 1-.057.018.319.319 0 0 1-.08.01A.35.35 0 0 1 .18.644a.274.274 0 0 1-.1-.07.307.307 0 0 1-.06-.107A.445.445 0 0 1 .02.197.27.27 0 0 1 .174.024a.325.325 0 0 1 .179-.02.413.413 0 0 1 .06.013.209.209 0 0 1 .062.028v.288z"/></symbol><use xlink:href="#U" transform="matrix(8.25 0 0 -8.25 447.443 523.58)" fill="#4b7693"/><use xlink:href="#M" transform="matrix(8.25 0 0 -8.25 451.158 523.58)" fill="#4b7693"/><use xlink:href="#R" transform="matrix(8.25 0 0 -8.25 456.039 523.5)" fill="#4b7693"/><use xlink:href="#S" transform="matrix(8.25 0 0 -8.25 463.222 525.095)" fill="#4b7693"/><use xlink:href="#Q" transform="matrix(8.25 0 0 -8.25 467.922 523.5)" fill="#4b7693"/><use xlink:href="#h" transform="matrix(8.25 0 0 -8.25 469.486 523.58)" fill="#4b7693"/><use xlink:href="#L" transform="matrix(8.25 0 0 -8.25 473.361 523.583)" fill="#4b7693"/><use xlink:href="#P" transform="matrix(8.25 0 0 -8.25 476.852 523.5)" fill="#4b7693"/><use xlink:href="#M" transform="matrix(8.25 0 0 -8.25 478.521 523.58)" fill="#4b7693"/><use xlink:href="#W" transform="matrix(8.25 0 0 -8.25 483.402 523.5)" fill="#4b7693"/><use xlink:href="#n" transform="matrix(8.25 0 0 -8.25 487.23 523.5)" fill="#4b7693"/><use xlink:href="#l" transform="matrix(8.25 0 0 -8.25 489.356 523.58)" fill="#4b7693"/><use xlink:href="#L" transform="matrix(8.25 0 0 -8.25 493.166 523.583)" fill="#4b7693"/><use xlink:href="#n" transform="matrix(8.25 0 0 -8.25 495.996 523.5)" fill="#4b7693"/><use xlink:href="#U" transform="matrix(8.25 0 0 -8.25 498.162 523.58)" fill="#4b7693"/><use xlink:href="#M" transform="matrix(8.25 0 0 -8.25 501.877 523.58)" fill="#4b7693"/><use xlink:href="#W" transform="matrix(8.25 0 0 -8.25 506.758 523.5)" fill="#4b7693"/><use xlink:href="#X" transform="matrix(8.25 0 0 -8.25 510.767 523.5)" fill="#4b7693"/><use xlink:href="#P" transform="matrix(8.25 0 0 -8.25 513.86 523.5)" fill="#4b7693"/><use xlink:href="#j" transform="matrix(8.25 0 0 -8.25 515.851 523.5)" fill="#4b7693"/><use xlink:href="#R" transform="matrix(8.25 0 0 -8.25 518.617 523.5)" fill="#4b7693"/><use xlink:href="#aa" transform="matrix(8.25 0 0 -8.25 525.559 523.58)" fill="#4b7693"/><use xlink:href="#k" transform="matrix(8.25 0 0 -8.25 527.327 523.58)" fill="#4b7693"/><use xlink:href="#K" transform="matrix(8.25 0 0 -8.25 531.619 523.58)" fill="#4b7693"/><use xlink:href="#l" transform="matrix(8.25 0 0 -8.25 536.278 523.58)" fill="#4b7693"/><use xlink:href="#U" transform="matrix(8.25 0 0 -8.25 540.35 523.58)" fill="#4b7693"/><use xlink:href="#P" transform="matrix(8.25 0 0 -8.25 544.282 523.5)" fill="#4b7693"/><use xlink:href="#L" transform="matrix(8.25 0 0 -8.25 545.69 523.583)" fill="#4b7693"/><use xlink:href="#m" transform="matrix(8.25 0 0 -8.25 548.66 525.178)" fill="#4b7693"/><use xlink:href="#aa" transform="matrix(8.25 0 0 -8.25 553.157 523.58)" fill="#4b7693"/><use xlink:href="#U" transform="matrix(8.25 0 0 -8.25 554.681 523.58)" fill="#4b7693"/><use xlink:href="#M" transform="matrix(8.25 0 0 -8.25 558.396 523.58)" fill="#4b7693"/><use xlink:href="#R" transform="matrix(8.25 0 0 -8.25 563.277 523.5)" fill="#4b7693"/><use xlink:href="#ab" transform="matrix(8.25 0 0 -8.25 569.534 524.507)" fill="#4b7693"/><use xlink:href="#E" transform="matrix(8.25 0 0 -8.25 573.064 523.5)" fill="#4b7693"/><use xlink:href="#T" transform="matrix(8.25 0 0 -8.25 578.44 523.58)" fill="#4b7693"/><use xlink:href="#ac" transform="matrix(8.25 0 0 -8.25 583.633 523.5)" fill="#4b7693"/><use xlink:href="#ad" transform="matrix(8.25 0 0 -8.25 588.18 523.5)" fill="#4b7693"/><use xlink:href="#A" transform="matrix(8.25 0 0 -8.25 593.793 523.5)" fill="#4b7693"/><use xlink:href="#x" transform="matrix(8.25 0 0 -8.25 598.035 523.5)" fill="#4b7693"/><use xlink:href="#ae" transform="matrix(8.25 0 0 -8.25 601.545 523.58)" fill="#4b7693"/><use xlink:href="#af" transform="matrix(8.25 0 0 -8.25 606.01 523.58)" fill="#4b7693"/><use xlink:href="#U" transform="matrix(8.25 0 0 -8.25 447.068 523.58)" fill="#4b7693"/><use xlink:href="#M" transform="matrix(8.25 0 0 -8.25 450.783 523.58)" fill="#4b7693"/><use xlink:href="#R" transform="matrix(8.25 0 0 -8.25 455.664 523.5)" fill="#4b7693"/><use xlink:href="#S" transform="matrix(8.25 0 0 -8.25 462.847 525.095)" fill="#4b7693"/><use xlink:href="#Q" transform="matrix(8.25 0 0 -8.25 467.547 523.5)" fill="#4b7693"/><use xlink:href="#h" transform="matrix(8.25 0 0 -8.25 469.111 523.58)" fill="#4b7693"/><use xlink:href="#L" transform="matrix(8.25 0 0 -8.25 472.986 523.583)" fill="#4b7693"/><use xlink:href="#P" transform="matrix(8.25 0 0 -8.25 476.477 523.5)" fill="#4b7693"/><use xlink:href="#M" transform="matrix(8.25 0 0 -8.25 478.146 523.58)" fill="#4b7693"/><use xlink:href="#W" transform="matrix(8.25 0 0 -8.25 483.027 523.5)" fill="#4b7693"/><use xlink:href="#n" transform="matrix(8.25 0 0 -8.25 486.855 523.5)" fill="#4b7693"/><use xlink:href="#l" transform="matrix(8.25 0 0 -8.25 488.981 523.58)" fill="#4b7693"/><use xlink:href="#L" transform="matrix(8.25 0 0 -8.25 492.79 523.583)" fill="#4b7693"/><use xlink:href="#n" transform="matrix(8.25 0 0 -8.25 495.621 523.5)" fill="#4b7693"/><use xlink:href="#U" transform="matrix(8.25 0 0 -8.25 497.787 523.58)" fill="#4b7693"/><use xlink:href="#M" transform="matrix(8.25 0 0 -8.25 501.502 523.58)" fill="#4b7693"/><use xlink:href="#W" transform="matrix(8.25 0 0 -8.25 506.383 523.5)" fill="#4b7693"/><use xlink:href="#X" transform="matrix(8.25 0 0 -8.25 510.392 523.5)" fill="#4b7693"/><use xlink:href="#P" transform="matrix(8.25 0 0 -8.25 513.485 523.5)" fill="#4b7693"/><use xlink:href="#j" transform="matrix(8.25 0 0 -8.25 515.476 523.5)" fill="#4b7693"/><use xlink:href="#R" transform="matrix(8.25 0 0 -8.25 518.242 523.5)" fill="#4b7693"/><use xlink:href="#aa" transform="matrix(8.25 0 0 -8.25 525.184 523.58)" fill="#4b7693"/><use xlink:href="#k" transform="matrix(8.25 0 0 -8.25 526.952 523.58)" fill="#4b7693"/><use xlink:href="#K" transform="matrix(8.25 0 0 -8.25 531.244 523.58)" fill="#4b7693"/><use xlink:href="#l" transform="matrix(8.25 0 0 -8.25 535.903 523.58)" fill="#4b7693"/><use xlink:href="#U" transform="matrix(8.25 0 0 -8.25 539.974 523.58)" fill="#4b7693"/><use xlink:href="#P" transform="matrix(8.25 0 0 -8.25 543.907 523.5)" fill="#4b7693"/><use xlink:href="#L" transform="matrix(8.25 0 0 -8.25 545.314 523.583)" fill="#4b7693"/><use xlink:href="#m" transform="matrix(8.25 0 0 -8.25 548.285 525.178)" fill="#4b7693"/><use xlink:href="#aa" transform="matrix(8.25 0 0 -8.25 552.782 523.58)" fill="#4b7693"/><use xlink:href="#U" transform="matrix(8.25 0 0 -8.25 554.306 523.58)" fill="#4b7693"/><use xlink:href="#M" transform="matrix(8.25 0 0 -8.25 558.021 523.58)" fill="#4b7693"/><use xlink:href="#R" transform="matrix(8.25 0 0 -8.25 562.902 523.5)" fill="#4b7693"/><use xlink:href="#ab" transform="matrix(8.25 0 0 -8.25 569.16 524.507)" fill="#4b7693"/><use xlink:href="#E" transform="matrix(8.25 0 0 -8.25 572.69 523.5)" fill="#4b7693"/><use xlink:href="#T" transform="matrix(8.25 0 0 -8.25 578.066 523.58)" fill="#4b7693"/><use xlink:href="#ac" transform="matrix(8.25 0 0 -8.25 583.258 523.5)" fill="#4b7693"/><use xlink:href="#ad" transform="matrix(8.25 0 0 -8.25 587.805 523.5)" fill="#4b7693"/><use xlink:href="#A" transform="matrix(8.25 0 0 -8.25 593.418 523.5)" fill="#4b7693"/><use xlink:href="#x" transform="matrix(8.25 0 0 -8.25 597.66 523.5)" fill="#4b7693"/><use xlink:href="#ae" transform="matrix(8.25 0 0 -8.25 601.17 523.58)" fill="#4b7693"/><use xlink:href="#af" transform="matrix(8.25 0 0 -8.25 605.635 523.58)" fill="#4b7693"/><symbol id="ag"><path d="M.184 0c.037 0 .07.003.099.01.029.007.054.018.073.032.02.014.036.033.047.055.01.022.016.048.016.078a.15.15 0 0 1-.013.063.169.169 0 0 1-.033.048.227.227 0 0 1-.09.054.205.205 0 0 1 .092.097.14.14 0 0 1 .012.054c0 .051-.02.09-.056.117a.262.262 0 0 1-.158.041H0V0h.184M.19.316a.251.251 0 0 0 .075-.01.16.16 0 0 0 .057-.029.12.12 0 0 0 .035-.046.153.153 0 0 0 .014-.063C.37.122.353.088.319.066a.26.26 0 0 0-.14-.03H.044v.28H.19M.044.614h.129c.053 0 .094-.01.122-.031C.323.563.338.53.338.486a.114.114 0 0 0-.01-.048A.147.147 0 0 0 .301.4.226.226 0 0 0 .238.352H.044v.262z"/></symbol><symbol id="ah"><path d="M.424 0h.045v.65H.424V.344h-.38v.304H0V0h.045v.31h.379V0z"/></symbol><use xlink:href="#v" transform="matrix(10.5 0 0 -10.5 242.013 507.103)" fill="#4b7693"/><use xlink:href="#n" transform="matrix(10.5 0 0 -10.5 246.586 507)" fill="#4b7693"/><use xlink:href="#A" transform="matrix(10.5 0 0 -10.5 249.763 507)" fill="#4b7693"/><use xlink:href="#n" transform="matrix(10.5 0 0 -10.5 254.191 507)" fill="#4b7693"/><use xlink:href="#ag" transform="matrix(10.5 0 0 -10.5 257.369 507)" fill="#4b7693"/><use xlink:href="#n" transform="matrix(10.5 0 0 -10.5 262.277 507)" fill="#4b7693"/><use xlink:href="#E" transform="matrix(10.5 0 0 -10.5 264.711 507)" fill="#4b7693"/><use xlink:href="#n" transform="matrix(10.5 0 0 -10.5 270.762 507)" fill="#4b7693"/><use xlink:href="#v" transform="matrix(10.5 0 0 -10.5 273.478 507.103)" fill="#4b7693"/><use xlink:href="#n" transform="matrix(10.5 0 0 -10.5 278.05 507)" fill="#4b7693"/><use xlink:href="#C" transform="matrix(10.5 0 0 -10.5 280.485 507)" fill="#4b7693"/><use xlink:href="#n" transform="matrix(10.5 0 0 -10.5 285.363 507)" fill="#4b7693"/><use xlink:href="#D" transform="matrix(10.5 0 0 -10.5 288.54 507)" fill="#4b7693"/><use xlink:href="#n" transform="matrix(10.5 0 0 -10.5 289.98 507)" fill="#4b7693"/><use xlink:href="#E" transform="matrix(10.5 0 0 -10.5 292.414 507)" fill="#4b7693"/><use xlink:href="#n" transform="matrix(10.5 0 0 -10.5 298.465 507)" fill="#4b7693"/><use xlink:href="#I" transform="matrix(10.5 0 0 -10.5 301.642 507)" fill="#4b7693"/><use xlink:href="#n" transform="matrix(10.5 0 0 -10.5 307.547 507)" fill="#4b7693"/><use xlink:href="#n" transform="matrix(10.5 0 0 -10.5 309.75 507)" fill="#4b7693"/><use xlink:href="#n" transform="matrix(10.5 0 0 -10.5 311.953 507)" fill="#4b7693"/><use xlink:href="#C" transform="matrix(10.5 0 0 -10.5 314.387 507)" fill="#4b7693"/><use xlink:href="#n" transform="matrix(10.5 0 0 -10.5 319.266 507)" fill="#4b7693"/><use xlink:href="#ah" transform="matrix(10.5 0 0 -10.5 322.443 507)" fill="#4b7693"/><use xlink:href="#n" transform="matrix(10.5 0 0 -10.5 328.336 507)" fill="#4b7693"/><use xlink:href="#B" transform="matrix(10.5 0 0 -10.5 331.513 507)" fill="#4b7693"/><use xlink:href="#n" transform="matrix(10.5 0 0 -10.5 336.188 507)" fill="#4b7693"/><use xlink:href="#T" transform="matrix(10.5 0 0 -10.5 339.185 507.103)" fill="#4b7693"/><use xlink:href="#n" transform="matrix(10.5 0 0 -10.5 344.813 507)" fill="#4b7693"/><use xlink:href="#I" transform="matrix(10.5 0 0 -10.5 347.99 507)" fill="#4b7693"/><use xlink:href="#v" transform="matrix(10.5 0 0 -10.5 241.638 507.103)" fill="#4b7693"/><use xlink:href="#n" transform="matrix(10.5 0 0 -10.5 246.21 507)" fill="#4b7693"/><use xlink:href="#A" transform="matrix(10.5 0 0 -10.5 249.388 507)" fill="#4b7693"/><use xlink:href="#n" transform="matrix(10.5 0 0 -10.5 253.816 507)" fill="#4b7693"/><use xlink:href="#ag" transform="matrix(10.5 0 0 -10.5 256.994 507)" fill="#4b7693"/><use xlink:href="#n" transform="matrix(10.5 0 0 -10.5 261.902 507)" fill="#4b7693"/><use xlink:href="#E" transform="matrix(10.5 0 0 -10.5 264.336 507)" fill="#4b7693"/><use xlink:href="#n" transform="matrix(10.5 0 0 -10.5 270.387 507)" fill="#4b7693"/><use xlink:href="#v" transform="matrix(10.5 0 0 -10.5 273.103 507.103)" fill="#4b7693"/><use xlink:href="#n" transform="matrix(10.5 0 0 -10.5 277.676 507)" fill="#4b7693"/><use xlink:href="#C" transform="matrix(10.5 0 0 -10.5 280.11 507)" fill="#4b7693"/><use xlink:href="#n" transform="matrix(10.5 0 0 -10.5 284.988 507)" fill="#4b7693"/><use xlink:href="#D" transform="matrix(10.5 0 0 -10.5 288.166 507)" fill="#4b7693"/><use xlink:href="#n" transform="matrix(10.5 0 0 -10.5 289.605 507)" fill="#4b7693"/><use xlink:href="#E" transform="matrix(10.5 0 0 -10.5 292.04 507)" fill="#4b7693"/><use xlink:href="#n" transform="matrix(10.5 0 0 -10.5 298.09 507)" fill="#4b7693"/><use xlink:href="#I" transform="matrix(10.5 0 0 -10.5 301.267 507)" fill="#4b7693"/><use xlink:href="#n" transform="matrix(10.5 0 0 -10.5 307.172 507)" fill="#4b7693"/><use xlink:href="#n" transform="matrix(10.5 0 0 -10.5 309.375 507)" fill="#4b7693"/><use xlink:href="#n" transform="matrix(10.5 0 0 -10.5 311.578 507)" fill="#4b7693"/><use xlink:href="#C" transform="matrix(10.5 0 0 -10.5 314.012 507)" fill="#4b7693"/><use xlink:href="#n" transform="matrix(10.5 0 0 -10.5 318.89 507)" fill="#4b7693"/><use xlink:href="#ah" transform="matrix(10.5 0 0 -10.5 322.068 507)" fill="#4b7693"/><use xlink:href="#n" transform="matrix(10.5 0 0 -10.5 327.961 507)" fill="#4b7693"/><use xlink:href="#B" transform="matrix(10.5 0 0 -10.5 331.138 507)" fill="#4b7693"/><use xlink:href="#n" transform="matrix(10.5 0 0 -10.5 335.813 507)" fill="#4b7693"/><use xlink:href="#T" transform="matrix(10.5 0 0 -10.5 338.81 507.103)" fill="#4b7693"/><use xlink:href="#n" transform="matrix(10.5 0 0 -10.5 344.438 507)" fill="#4b7693"/><use xlink:href="#I" transform="matrix(10.5 0 0 -10.5 347.615 507)" fill="#4b7693"/><use xlink:href="#g" transform="matrix(10.5 0 0 -10.5 279.224 525.75)"/><use xlink:href="#M" transform="matrix(10.5 0 0 -10.5 283.806 525.853)"/><use xlink:href="#k" transform="matrix(10.5 0 0 -10.5 289.928 525.853)"/><use xlink:href="#W" transform="matrix(10.5 0 0 -10.5 295.794 525.75)"/><use xlink:href="#K" transform="matrix(10.5 0 0 -10.5 301.232 525.853)"/><use xlink:href="#h" transform="matrix(10.5 0 0 -10.5 307.22 525.853)"/><use xlink:href="#j" transform="matrix(10.5 0 0 -10.5 312.892 525.75)"/><use xlink:href="#q" transform="matrix(10.5 0 0 -10.5 315.639 527.406)"/><use xlink:href="#n" transform="matrix(10.5 0 0 -10.5 317.32 525.75)"/><use xlink:href="#T" transform="matrix(10.5 0 0 -10.5 320.318 525.853)"/><use xlink:href="#K" transform="matrix(10.5 0 0 -10.5 326.51 525.853)"/><use xlink:href="#l" transform="matrix(10.5 0 0 -10.5 332.446 525.853)"/><use xlink:href="#U" transform="matrix(10.5 0 0 -10.5 337.63 525.853)"/><use xlink:href="#P" transform="matrix(10.5 0 0 -10.5 342.63 525.75)"/><use xlink:href="#L" transform="matrix(10.5 0 0 -10.5 344.422 525.856)"/><use xlink:href="#m" transform="matrix(10.5 0 0 -10.5 348.203 527.886)"/></g></svg>